<mxfile host="Electron" modified="2024-01-31T22:42:09.053Z" agent="Mozilla/5.0 (X11; Linux x86_64) AppleWebKit/537.36 (KHTML, like Gecko) draw.io/22.1.21 Chrome/120.0.6099.109 Electron/28.1.0 Safari/537.36" etag="G_RW-4RQSKKns7Z_wZJt" version="22.1.21" type="device">
  <diagram id="3DdWZ7-q1GbTLJ-ddxQt" name="Page-1">
    <mxGraphModel dx="1434" dy="858" grid="1" gridSize="10" guides="1" tooltips="1" connect="1" arrows="1" fold="1" page="1" pageScale="1" pageWidth="850" pageHeight="1100" math="0" shadow="0">
      <root>
        <mxCell id="0" />
        <mxCell id="1" parent="0" />
        <mxCell id="PCIISM8drCVlrjOnqSXP-120" value="" style="rounded=0;whiteSpace=wrap;html=1;fontSize=20;fillColor=none;" parent="1" vertex="1">
          <mxGeometry x="120" y="870" width="120" height="60" as="geometry" />
        </mxCell>
        <mxCell id="PCIISM8drCVlrjOnqSXP-121" value="" style="rounded=0;whiteSpace=wrap;html=1;fontSize=20;fillColor=none;" parent="1" vertex="1">
          <mxGeometry x="549.31" y="875" width="120" height="60" as="geometry" />
        </mxCell>
        <mxCell id="PCIISM8drCVlrjOnqSXP-1" value="" style="endArrow=none;html=1;rounded=0;" parent="1" edge="1">
          <mxGeometry width="50" height="50" relative="1" as="geometry">
            <mxPoint x="40" y="340" as="sourcePoint" />
            <mxPoint x="40" y="220" as="targetPoint" />
          </mxGeometry>
        </mxCell>
        <mxCell id="PCIISM8drCVlrjOnqSXP-2" value="" style="endArrow=none;html=1;rounded=0;" parent="1" edge="1">
          <mxGeometry width="50" height="50" relative="1" as="geometry">
            <mxPoint x="80" y="340" as="sourcePoint" />
            <mxPoint x="40" y="340" as="targetPoint" />
          </mxGeometry>
        </mxCell>
        <mxCell id="PCIISM8drCVlrjOnqSXP-3" value="" style="endArrow=none;html=1;rounded=0;" parent="1" edge="1">
          <mxGeometry width="50" height="50" relative="1" as="geometry">
            <mxPoint x="80" y="340" as="sourcePoint" />
            <mxPoint x="80" y="300" as="targetPoint" />
          </mxGeometry>
        </mxCell>
        <mxCell id="PCIISM8drCVlrjOnqSXP-4" value="" style="endArrow=none;html=1;rounded=0;" parent="1" edge="1">
          <mxGeometry width="50" height="50" relative="1" as="geometry">
            <mxPoint x="80" y="300" as="sourcePoint" />
            <mxPoint x="360" y="300" as="targetPoint" />
          </mxGeometry>
        </mxCell>
        <mxCell id="PCIISM8drCVlrjOnqSXP-6" value="5" style="rounded=0;whiteSpace=wrap;html=1;" parent="1" vertex="1">
          <mxGeometry x="80" y="260" width="40" height="20" as="geometry" />
        </mxCell>
        <mxCell id="PCIISM8drCVlrjOnqSXP-7" value="6" style="rounded=0;whiteSpace=wrap;html=1;" parent="1" vertex="1">
          <mxGeometry x="160" y="260" width="40" height="20" as="geometry" />
        </mxCell>
        <mxCell id="PCIISM8drCVlrjOnqSXP-8" value="7" style="rounded=0;whiteSpace=wrap;html=1;" parent="1" vertex="1">
          <mxGeometry x="240" y="260" width="40" height="20" as="geometry" />
        </mxCell>
        <mxCell id="PCIISM8drCVlrjOnqSXP-9" value="8" style="rounded=0;whiteSpace=wrap;html=1;" parent="1" vertex="1">
          <mxGeometry x="320" y="260" width="40" height="20" as="geometry" />
        </mxCell>
        <mxCell id="PCIISM8drCVlrjOnqSXP-10" value="&lt;font style=&quot;font-size: 12px&quot;&gt;1&lt;/font&gt;" style="rounded=0;whiteSpace=wrap;html=1;" parent="1" vertex="1">
          <mxGeometry x="80" y="220" width="40" height="20" as="geometry" />
        </mxCell>
        <mxCell id="PCIISM8drCVlrjOnqSXP-11" value="2" style="rounded=0;whiteSpace=wrap;html=1;" parent="1" vertex="1">
          <mxGeometry x="160" y="220" width="40" height="20" as="geometry" />
        </mxCell>
        <mxCell id="PCIISM8drCVlrjOnqSXP-12" value="3" style="rounded=0;whiteSpace=wrap;html=1;" parent="1" vertex="1">
          <mxGeometry x="240" y="220" width="40" height="20" as="geometry" />
        </mxCell>
        <mxCell id="PCIISM8drCVlrjOnqSXP-13" value="4" style="rounded=0;whiteSpace=wrap;html=1;" parent="1" vertex="1">
          <mxGeometry x="320" y="220" width="40" height="20" as="geometry" />
        </mxCell>
        <mxCell id="PCIISM8drCVlrjOnqSXP-14" value="" style="endArrow=none;html=1;rounded=0;" parent="1" edge="1">
          <mxGeometry width="50" height="50" relative="1" as="geometry">
            <mxPoint x="400" y="340" as="sourcePoint" />
            <mxPoint x="360" y="340" as="targetPoint" />
          </mxGeometry>
        </mxCell>
        <mxCell id="PCIISM8drCVlrjOnqSXP-15" value="" style="endArrow=none;html=1;rounded=0;" parent="1" edge="1">
          <mxGeometry width="50" height="50" relative="1" as="geometry">
            <mxPoint x="360" y="340" as="sourcePoint" />
            <mxPoint x="360" y="300" as="targetPoint" />
          </mxGeometry>
        </mxCell>
        <mxCell id="PCIISM8drCVlrjOnqSXP-16" value="" style="endArrow=none;html=1;rounded=0;" parent="1" edge="1">
          <mxGeometry width="50" height="50" relative="1" as="geometry">
            <mxPoint x="400" y="220" as="sourcePoint" />
            <mxPoint x="400" y="340" as="targetPoint" />
          </mxGeometry>
        </mxCell>
        <mxCell id="PCIISM8drCVlrjOnqSXP-17" value="" style="endArrow=none;html=1;rounded=0;" parent="1" edge="1">
          <mxGeometry width="50" height="50" relative="1" as="geometry">
            <mxPoint x="80" y="190" as="sourcePoint" />
            <mxPoint x="360" y="190" as="targetPoint" />
          </mxGeometry>
        </mxCell>
        <mxCell id="PCIISM8drCVlrjOnqSXP-18" value="" style="endArrow=none;html=1;rounded=0;" parent="1" edge="1">
          <mxGeometry width="50" height="50" relative="1" as="geometry">
            <mxPoint x="360" y="190" as="sourcePoint" />
            <mxPoint x="400" y="220" as="targetPoint" />
          </mxGeometry>
        </mxCell>
        <mxCell id="PCIISM8drCVlrjOnqSXP-19" value="" style="endArrow=none;html=1;rounded=0;" parent="1" edge="1">
          <mxGeometry width="50" height="50" relative="1" as="geometry">
            <mxPoint x="40" y="220" as="sourcePoint" />
            <mxPoint x="80" y="190" as="targetPoint" />
          </mxGeometry>
        </mxCell>
        <mxCell id="PCIISM8drCVlrjOnqSXP-20" value="" style="endArrow=none;html=1;rounded=0;" parent="1" edge="1">
          <mxGeometry width="50" height="50" relative="1" as="geometry">
            <mxPoint x="470" y="340" as="sourcePoint" />
            <mxPoint x="470" y="220" as="targetPoint" />
          </mxGeometry>
        </mxCell>
        <mxCell id="PCIISM8drCVlrjOnqSXP-21" value="" style="endArrow=none;html=1;rounded=0;" parent="1" edge="1">
          <mxGeometry width="50" height="50" relative="1" as="geometry">
            <mxPoint x="510" y="340" as="sourcePoint" />
            <mxPoint x="470" y="340" as="targetPoint" />
          </mxGeometry>
        </mxCell>
        <mxCell id="PCIISM8drCVlrjOnqSXP-22" value="" style="endArrow=none;html=1;rounded=0;" parent="1" edge="1">
          <mxGeometry width="50" height="50" relative="1" as="geometry">
            <mxPoint x="510" y="340" as="sourcePoint" />
            <mxPoint x="510" y="300" as="targetPoint" />
          </mxGeometry>
        </mxCell>
        <mxCell id="PCIISM8drCVlrjOnqSXP-23" value="" style="endArrow=none;html=1;rounded=0;" parent="1" edge="1">
          <mxGeometry width="50" height="50" relative="1" as="geometry">
            <mxPoint x="510" y="300" as="sourcePoint" />
            <mxPoint x="790" y="300" as="targetPoint" />
          </mxGeometry>
        </mxCell>
        <mxCell id="PCIISM8drCVlrjOnqSXP-24" value="" style="rounded=0;whiteSpace=wrap;html=1;" parent="1" vertex="1">
          <mxGeometry x="510" y="270" width="40" height="10" as="geometry" />
        </mxCell>
        <mxCell id="PCIISM8drCVlrjOnqSXP-25" value="" style="rounded=0;whiteSpace=wrap;html=1;" parent="1" vertex="1">
          <mxGeometry x="590" y="270" width="40" height="10" as="geometry" />
        </mxCell>
        <mxCell id="PCIISM8drCVlrjOnqSXP-26" value="" style="rounded=0;whiteSpace=wrap;html=1;" parent="1" vertex="1">
          <mxGeometry x="670" y="270" width="40" height="10" as="geometry" />
        </mxCell>
        <mxCell id="PCIISM8drCVlrjOnqSXP-27" value="" style="rounded=0;whiteSpace=wrap;html=1;" parent="1" vertex="1">
          <mxGeometry x="750" y="270" width="40" height="10" as="geometry" />
        </mxCell>
        <mxCell id="PCIISM8drCVlrjOnqSXP-28" value="" style="rounded=0;whiteSpace=wrap;html=1;" parent="1" vertex="1">
          <mxGeometry x="510" y="230" width="40" height="10" as="geometry" />
        </mxCell>
        <mxCell id="PCIISM8drCVlrjOnqSXP-29" value="" style="rounded=0;whiteSpace=wrap;html=1;" parent="1" vertex="1">
          <mxGeometry x="590" y="230" width="40" height="10" as="geometry" />
        </mxCell>
        <mxCell id="PCIISM8drCVlrjOnqSXP-30" value="" style="rounded=0;whiteSpace=wrap;html=1;" parent="1" vertex="1">
          <mxGeometry x="670" y="230" width="40" height="10" as="geometry" />
        </mxCell>
        <mxCell id="PCIISM8drCVlrjOnqSXP-31" value="" style="rounded=0;whiteSpace=wrap;html=1;" parent="1" vertex="1">
          <mxGeometry x="750" y="230" width="40" height="10" as="geometry" />
        </mxCell>
        <mxCell id="PCIISM8drCVlrjOnqSXP-32" value="" style="endArrow=none;html=1;rounded=0;" parent="1" edge="1">
          <mxGeometry width="50" height="50" relative="1" as="geometry">
            <mxPoint x="830" y="340" as="sourcePoint" />
            <mxPoint x="790" y="340" as="targetPoint" />
          </mxGeometry>
        </mxCell>
        <mxCell id="PCIISM8drCVlrjOnqSXP-33" value="" style="endArrow=none;html=1;rounded=0;" parent="1" edge="1">
          <mxGeometry width="50" height="50" relative="1" as="geometry">
            <mxPoint x="790" y="340" as="sourcePoint" />
            <mxPoint x="790" y="300" as="targetPoint" />
          </mxGeometry>
        </mxCell>
        <mxCell id="PCIISM8drCVlrjOnqSXP-34" value="" style="endArrow=none;html=1;rounded=0;" parent="1" edge="1">
          <mxGeometry width="50" height="50" relative="1" as="geometry">
            <mxPoint x="830" y="220" as="sourcePoint" />
            <mxPoint x="830" y="340" as="targetPoint" />
          </mxGeometry>
        </mxCell>
        <mxCell id="PCIISM8drCVlrjOnqSXP-35" value="" style="endArrow=none;html=1;rounded=0;" parent="1" edge="1">
          <mxGeometry width="50" height="50" relative="1" as="geometry">
            <mxPoint x="510" y="190" as="sourcePoint" />
            <mxPoint x="790" y="190" as="targetPoint" />
          </mxGeometry>
        </mxCell>
        <mxCell id="PCIISM8drCVlrjOnqSXP-36" value="" style="endArrow=none;html=1;rounded=0;" parent="1" edge="1">
          <mxGeometry width="50" height="50" relative="1" as="geometry">
            <mxPoint x="790" y="190" as="sourcePoint" />
            <mxPoint x="830" y="220" as="targetPoint" />
          </mxGeometry>
        </mxCell>
        <mxCell id="PCIISM8drCVlrjOnqSXP-37" value="" style="endArrow=none;html=1;rounded=0;" parent="1" edge="1">
          <mxGeometry width="50" height="50" relative="1" as="geometry">
            <mxPoint x="470" y="220" as="sourcePoint" />
            <mxPoint x="510" y="190" as="targetPoint" />
          </mxGeometry>
        </mxCell>
        <mxCell id="PCIISM8drCVlrjOnqSXP-38" value="&lt;font style=&quot;font-size: 20px&quot;&gt;x8&lt;/font&gt;" style="text;html=1;align=center;verticalAlign=middle;resizable=0;points=[];autosize=1;strokeColor=none;fillColor=none;" parent="1" vertex="1">
          <mxGeometry x="420" y="250" width="40" height="20" as="geometry" />
        </mxCell>
        <mxCell id="PCIISM8drCVlrjOnqSXP-39" value="&lt;font style=&quot;font-size: 20px&quot;&gt;Клеммы М&lt;/font&gt;" style="text;html=1;align=center;verticalAlign=middle;resizable=0;points=[];autosize=1;strokeColor=none;fillColor=none;" parent="1" vertex="1">
          <mxGeometry x="160" y="140" width="110" height="20" as="geometry" />
        </mxCell>
        <mxCell id="PCIISM8drCVlrjOnqSXP-40" value="&lt;font style=&quot;font-size: 20px&quot;&gt;Клеммы П&lt;/font&gt;" style="text;html=1;align=center;verticalAlign=middle;resizable=0;points=[];autosize=1;strokeColor=none;fillColor=none;" parent="1" vertex="1">
          <mxGeometry x="600" y="140" width="110" height="20" as="geometry" />
        </mxCell>
        <mxCell id="PCIISM8drCVlrjOnqSXP-41" value="&lt;div style=&quot;text-align: left ; font-size: 20px&quot;&gt;&lt;font style=&quot;font-size: 20px&quot;&gt;Нумерация клемм&lt;/font&gt;&lt;/div&gt;&lt;div style=&quot;text-align: left ; font-size: 20px&quot;&gt;&lt;font style=&quot;font-size: 20px&quot;&gt;Вид со стороны клемм&lt;/font&gt;&lt;/div&gt;" style="text;html=1;align=center;verticalAlign=middle;resizable=0;points=[];autosize=1;strokeColor=none;fillColor=none;" parent="1" vertex="1">
          <mxGeometry x="40" y="40" width="230" height="30" as="geometry" />
        </mxCell>
        <mxCell id="PCIISM8drCVlrjOnqSXP-42" value="1" style="text;html=1;align=center;verticalAlign=middle;resizable=0;points=[];autosize=1;strokeColor=none;fillColor=none;fontSize=12;" parent="1" vertex="1">
          <mxGeometry x="760" y="210" width="20" height="20" as="geometry" />
        </mxCell>
        <mxCell id="PCIISM8drCVlrjOnqSXP-43" value="2" style="text;html=1;align=center;verticalAlign=middle;resizable=0;points=[];autosize=1;strokeColor=none;fillColor=none;fontSize=12;" parent="1" vertex="1">
          <mxGeometry x="680" y="210" width="20" height="20" as="geometry" />
        </mxCell>
        <mxCell id="PCIISM8drCVlrjOnqSXP-44" value="3" style="text;html=1;align=center;verticalAlign=middle;resizable=0;points=[];autosize=1;strokeColor=none;fillColor=none;fontSize=12;" parent="1" vertex="1">
          <mxGeometry x="600" y="210" width="20" height="20" as="geometry" />
        </mxCell>
        <mxCell id="PCIISM8drCVlrjOnqSXP-45" value="4" style="text;html=1;align=center;verticalAlign=middle;resizable=0;points=[];autosize=1;strokeColor=none;fillColor=none;fontSize=12;" parent="1" vertex="1">
          <mxGeometry x="520" y="210" width="20" height="20" as="geometry" />
        </mxCell>
        <mxCell id="PCIISM8drCVlrjOnqSXP-46" value="5" style="text;html=1;align=center;verticalAlign=middle;resizable=0;points=[];autosize=1;strokeColor=none;fillColor=none;fontSize=12;" parent="1" vertex="1">
          <mxGeometry x="760" y="250" width="20" height="20" as="geometry" />
        </mxCell>
        <mxCell id="PCIISM8drCVlrjOnqSXP-47" value="6" style="text;html=1;align=center;verticalAlign=middle;resizable=0;points=[];autosize=1;strokeColor=none;fillColor=none;fontSize=12;" parent="1" vertex="1">
          <mxGeometry x="680" y="250" width="20" height="20" as="geometry" />
        </mxCell>
        <mxCell id="PCIISM8drCVlrjOnqSXP-48" value="7" style="text;html=1;align=center;verticalAlign=middle;resizable=0;points=[];autosize=1;strokeColor=none;fillColor=none;fontSize=12;" parent="1" vertex="1">
          <mxGeometry x="600" y="250" width="20" height="20" as="geometry" />
        </mxCell>
        <mxCell id="PCIISM8drCVlrjOnqSXP-49" value="8" style="text;html=1;align=center;verticalAlign=middle;resizable=0;points=[];autosize=1;strokeColor=none;fillColor=none;fontSize=12;" parent="1" vertex="1">
          <mxGeometry x="520" y="250" width="20" height="20" as="geometry" />
        </mxCell>
        <mxCell id="PCIISM8drCVlrjOnqSXP-50" value="3" style="rounded=0;whiteSpace=wrap;html=1;" parent="1" vertex="1">
          <mxGeometry x="160" y="540" width="40" height="20" as="geometry" />
        </mxCell>
        <mxCell id="PCIISM8drCVlrjOnqSXP-51" value="4" style="rounded=0;whiteSpace=wrap;html=1;" parent="1" vertex="1">
          <mxGeometry x="240" y="540" width="40" height="20" as="geometry" />
        </mxCell>
        <mxCell id="PCIISM8drCVlrjOnqSXP-52" value="&lt;font style=&quot;font-size: 12px&quot;&gt;1&lt;/font&gt;" style="rounded=0;whiteSpace=wrap;html=1;" parent="1" vertex="1">
          <mxGeometry x="160" y="500" width="40" height="20" as="geometry" />
        </mxCell>
        <mxCell id="PCIISM8drCVlrjOnqSXP-53" value="2" style="rounded=0;whiteSpace=wrap;html=1;" parent="1" vertex="1">
          <mxGeometry x="240" y="500" width="40" height="20" as="geometry" />
        </mxCell>
        <mxCell id="PCIISM8drCVlrjOnqSXP-54" value="" style="endArrow=none;html=1;rounded=0;fontSize=12;" parent="1" edge="1">
          <mxGeometry width="50" height="50" relative="1" as="geometry">
            <mxPoint x="120" y="550" as="sourcePoint" />
            <mxPoint x="120" y="580" as="targetPoint" />
          </mxGeometry>
        </mxCell>
        <mxCell id="PCIISM8drCVlrjOnqSXP-55" value="" style="endArrow=none;html=1;rounded=0;fontSize=12;" parent="1" edge="1">
          <mxGeometry width="50" height="50" relative="1" as="geometry">
            <mxPoint x="120" y="580" as="sourcePoint" />
            <mxPoint x="320" y="580" as="targetPoint" />
          </mxGeometry>
        </mxCell>
        <mxCell id="PCIISM8drCVlrjOnqSXP-56" value="" style="endArrow=none;html=1;rounded=0;fontSize=12;" parent="1" edge="1">
          <mxGeometry width="50" height="50" relative="1" as="geometry">
            <mxPoint x="320" y="580" as="sourcePoint" />
            <mxPoint x="320" y="500" as="targetPoint" />
          </mxGeometry>
        </mxCell>
        <mxCell id="PCIISM8drCVlrjOnqSXP-57" value="" style="endArrow=none;html=1;rounded=0;fontSize=12;" parent="1" edge="1">
          <mxGeometry width="50" height="50" relative="1" as="geometry">
            <mxPoint x="320" y="500" as="sourcePoint" />
            <mxPoint x="280" y="470" as="targetPoint" />
          </mxGeometry>
        </mxCell>
        <mxCell id="PCIISM8drCVlrjOnqSXP-58" value="" style="endArrow=none;html=1;rounded=0;fontSize=12;" parent="1" edge="1">
          <mxGeometry width="50" height="50" relative="1" as="geometry">
            <mxPoint x="280" y="470" as="sourcePoint" />
            <mxPoint x="160" y="470" as="targetPoint" />
          </mxGeometry>
        </mxCell>
        <mxCell id="PCIISM8drCVlrjOnqSXP-59" value="" style="endArrow=none;html=1;rounded=0;fontSize=12;" parent="1" edge="1">
          <mxGeometry width="50" height="50" relative="1" as="geometry">
            <mxPoint x="160" y="470" as="sourcePoint" />
            <mxPoint x="120" y="500" as="targetPoint" />
          </mxGeometry>
        </mxCell>
        <mxCell id="PCIISM8drCVlrjOnqSXP-60" value="" style="endArrow=none;html=1;rounded=0;fontSize=12;" parent="1" edge="1">
          <mxGeometry width="50" height="50" relative="1" as="geometry">
            <mxPoint x="120" y="500" as="sourcePoint" />
            <mxPoint x="120" y="520" as="targetPoint" />
          </mxGeometry>
        </mxCell>
        <mxCell id="PCIISM8drCVlrjOnqSXP-61" value="" style="verticalLabelPosition=bottom;verticalAlign=top;html=1;shape=mxgraph.basic.arc;startAngle=0.5015914963824541;endAngle=0.9981053877967426;fontSize=12;" parent="1" vertex="1">
          <mxGeometry x="100" y="520" width="40" height="30" as="geometry" />
        </mxCell>
        <mxCell id="PCIISM8drCVlrjOnqSXP-74" value="" style="rounded=0;whiteSpace=wrap;html=1;" parent="1" vertex="1">
          <mxGeometry x="589.31" y="550" width="40" height="10" as="geometry" />
        </mxCell>
        <mxCell id="PCIISM8drCVlrjOnqSXP-75" value="" style="rounded=0;whiteSpace=wrap;html=1;" parent="1" vertex="1">
          <mxGeometry x="669.31" y="550" width="40" height="10" as="geometry" />
        </mxCell>
        <mxCell id="PCIISM8drCVlrjOnqSXP-76" value="" style="rounded=0;whiteSpace=wrap;html=1;" parent="1" vertex="1">
          <mxGeometry x="589.31" y="510" width="40" height="10" as="geometry" />
        </mxCell>
        <mxCell id="PCIISM8drCVlrjOnqSXP-77" value="" style="rounded=0;whiteSpace=wrap;html=1;" parent="1" vertex="1">
          <mxGeometry x="669.31" y="510" width="40" height="10" as="geometry" />
        </mxCell>
        <mxCell id="PCIISM8drCVlrjOnqSXP-78" value="" style="endArrow=none;html=1;rounded=0;fontSize=12;" parent="1" edge="1">
          <mxGeometry width="50" height="50" relative="1" as="geometry">
            <mxPoint x="750" y="550" as="sourcePoint" />
            <mxPoint x="750" y="580" as="targetPoint" />
          </mxGeometry>
        </mxCell>
        <mxCell id="PCIISM8drCVlrjOnqSXP-79" value="" style="endArrow=none;html=1;rounded=0;fontSize=12;" parent="1" edge="1">
          <mxGeometry width="50" height="50" relative="1" as="geometry">
            <mxPoint x="549.31" y="580" as="sourcePoint" />
            <mxPoint x="749.31" y="580" as="targetPoint" />
          </mxGeometry>
        </mxCell>
        <mxCell id="PCIISM8drCVlrjOnqSXP-80" value="" style="endArrow=none;html=1;rounded=0;fontSize=12;" parent="1" edge="1">
          <mxGeometry width="50" height="50" relative="1" as="geometry">
            <mxPoint x="550" y="580" as="sourcePoint" />
            <mxPoint x="550" y="500" as="targetPoint" />
          </mxGeometry>
        </mxCell>
        <mxCell id="PCIISM8drCVlrjOnqSXP-81" value="" style="endArrow=none;html=1;rounded=0;fontSize=12;" parent="1" edge="1">
          <mxGeometry width="50" height="50" relative="1" as="geometry">
            <mxPoint x="749.31" y="500" as="sourcePoint" />
            <mxPoint x="709.31" y="470" as="targetPoint" />
          </mxGeometry>
        </mxCell>
        <mxCell id="PCIISM8drCVlrjOnqSXP-82" value="" style="endArrow=none;html=1;rounded=0;fontSize=12;" parent="1" edge="1">
          <mxGeometry width="50" height="50" relative="1" as="geometry">
            <mxPoint x="709.31" y="470" as="sourcePoint" />
            <mxPoint x="589.31" y="470" as="targetPoint" />
          </mxGeometry>
        </mxCell>
        <mxCell id="PCIISM8drCVlrjOnqSXP-83" value="" style="endArrow=none;html=1;rounded=0;fontSize=12;" parent="1" edge="1">
          <mxGeometry width="50" height="50" relative="1" as="geometry">
            <mxPoint x="589.31" y="470" as="sourcePoint" />
            <mxPoint x="549.31" y="500" as="targetPoint" />
          </mxGeometry>
        </mxCell>
        <mxCell id="PCIISM8drCVlrjOnqSXP-84" value="" style="endArrow=none;html=1;rounded=0;fontSize=12;" parent="1" edge="1">
          <mxGeometry width="50" height="50" relative="1" as="geometry">
            <mxPoint x="750" y="500" as="sourcePoint" />
            <mxPoint x="750" y="520" as="targetPoint" />
          </mxGeometry>
        </mxCell>
        <mxCell id="PCIISM8drCVlrjOnqSXP-85" value="" style="verticalLabelPosition=bottom;verticalAlign=top;html=1;shape=mxgraph.basic.arc;startAngle=0.5015914963824541;endAngle=0.9981053877967426;fontSize=12;rotation=-180;" parent="1" vertex="1">
          <mxGeometry x="730" y="520" width="40" height="30" as="geometry" />
        </mxCell>
        <mxCell id="PCIISM8drCVlrjOnqSXP-88" value="&lt;font style=&quot;font-size: 20px&quot;&gt;x4&lt;br&gt;&lt;/font&gt;" style="text;html=1;align=center;verticalAlign=middle;resizable=0;points=[];autosize=1;strokeColor=none;fillColor=none;" parent="1" vertex="1">
          <mxGeometry x="420" y="540" width="40" height="20" as="geometry" />
        </mxCell>
        <mxCell id="PCIISM8drCVlrjOnqSXP-89" value="&lt;font style=&quot;font-size: 12px&quot;&gt;1&lt;/font&gt;" style="rounded=0;whiteSpace=wrap;html=1;" parent="1" vertex="1">
          <mxGeometry x="160" y="740" width="40" height="20" as="geometry" />
        </mxCell>
        <mxCell id="PCIISM8drCVlrjOnqSXP-90" value="2" style="rounded=0;whiteSpace=wrap;html=1;" parent="1" vertex="1">
          <mxGeometry x="240" y="740" width="40" height="20" as="geometry" />
        </mxCell>
        <mxCell id="PCIISM8drCVlrjOnqSXP-92" value="" style="endArrow=none;html=1;rounded=0;fontSize=12;" parent="1" edge="1">
          <mxGeometry width="50" height="50" relative="1" as="geometry">
            <mxPoint x="120" y="800" as="sourcePoint" />
            <mxPoint x="120" y="700" as="targetPoint" />
          </mxGeometry>
        </mxCell>
        <mxCell id="PCIISM8drCVlrjOnqSXP-93" value="" style="endArrow=none;html=1;rounded=0;fontSize=12;" parent="1" edge="1">
          <mxGeometry width="50" height="50" relative="1" as="geometry">
            <mxPoint x="120" y="700" as="sourcePoint" />
            <mxPoint x="210" y="700" as="targetPoint" />
          </mxGeometry>
        </mxCell>
        <mxCell id="PCIISM8drCVlrjOnqSXP-94" value="" style="endArrow=none;html=1;rounded=0;fontSize=12;" parent="1" edge="1">
          <mxGeometry width="50" height="50" relative="1" as="geometry">
            <mxPoint x="210" y="700" as="sourcePoint" />
            <mxPoint x="210" y="720" as="targetPoint" />
          </mxGeometry>
        </mxCell>
        <mxCell id="PCIISM8drCVlrjOnqSXP-95" value="" style="endArrow=none;html=1;rounded=0;fontSize=12;" parent="1" edge="1">
          <mxGeometry width="50" height="50" relative="1" as="geometry">
            <mxPoint x="210" y="720" as="sourcePoint" />
            <mxPoint x="230" y="720" as="targetPoint" />
          </mxGeometry>
        </mxCell>
        <mxCell id="PCIISM8drCVlrjOnqSXP-96" value="" style="endArrow=none;html=1;rounded=0;fontSize=12;" parent="1" edge="1">
          <mxGeometry width="50" height="50" relative="1" as="geometry">
            <mxPoint x="230" y="720" as="sourcePoint" />
            <mxPoint x="230" y="700" as="targetPoint" />
          </mxGeometry>
        </mxCell>
        <mxCell id="PCIISM8drCVlrjOnqSXP-97" value="" style="endArrow=none;html=1;rounded=0;fontSize=12;" parent="1" edge="1">
          <mxGeometry width="50" height="50" relative="1" as="geometry">
            <mxPoint x="230" y="700" as="sourcePoint" />
            <mxPoint x="320" y="700" as="targetPoint" />
          </mxGeometry>
        </mxCell>
        <mxCell id="PCIISM8drCVlrjOnqSXP-98" value="" style="endArrow=none;html=1;rounded=0;fontSize=12;" parent="1" edge="1">
          <mxGeometry width="50" height="50" relative="1" as="geometry">
            <mxPoint x="320" y="700" as="sourcePoint" />
            <mxPoint x="320" y="800" as="targetPoint" />
          </mxGeometry>
        </mxCell>
        <mxCell id="PCIISM8drCVlrjOnqSXP-99" value="" style="endArrow=none;html=1;rounded=0;fontSize=12;" parent="1" edge="1">
          <mxGeometry width="50" height="50" relative="1" as="geometry">
            <mxPoint x="320" y="800" as="sourcePoint" />
            <mxPoint x="120" y="800" as="targetPoint" />
          </mxGeometry>
        </mxCell>
        <mxCell id="PCIISM8drCVlrjOnqSXP-100" value="" style="rounded=0;whiteSpace=wrap;html=1;" parent="1" vertex="1">
          <mxGeometry x="589.31" y="750" width="40" height="10" as="geometry" />
        </mxCell>
        <mxCell id="PCIISM8drCVlrjOnqSXP-101" value="" style="rounded=0;whiteSpace=wrap;html=1;" parent="1" vertex="1">
          <mxGeometry x="669.31" y="750" width="40" height="10" as="geometry" />
        </mxCell>
        <mxCell id="PCIISM8drCVlrjOnqSXP-102" value="" style="endArrow=none;html=1;rounded=0;fontSize=12;" parent="1" edge="1">
          <mxGeometry width="50" height="50" relative="1" as="geometry">
            <mxPoint x="550" y="799.66" as="sourcePoint" />
            <mxPoint x="550" y="699.66" as="targetPoint" />
          </mxGeometry>
        </mxCell>
        <mxCell id="PCIISM8drCVlrjOnqSXP-103" value="" style="endArrow=none;html=1;rounded=0;fontSize=12;" parent="1" edge="1">
          <mxGeometry width="50" height="50" relative="1" as="geometry">
            <mxPoint x="550" y="699.66" as="sourcePoint" />
            <mxPoint x="750" y="700" as="targetPoint" />
          </mxGeometry>
        </mxCell>
        <mxCell id="PCIISM8drCVlrjOnqSXP-104" value="" style="endArrow=none;html=1;rounded=0;fontSize=12;" parent="1" edge="1">
          <mxGeometry width="50" height="50" relative="1" as="geometry">
            <mxPoint x="654" y="699.66" as="sourcePoint" />
            <mxPoint x="654" y="719.66" as="targetPoint" />
          </mxGeometry>
        </mxCell>
        <mxCell id="PCIISM8drCVlrjOnqSXP-105" value="" style="endArrow=none;html=1;rounded=0;fontSize=12;" parent="1" edge="1">
          <mxGeometry width="50" height="50" relative="1" as="geometry">
            <mxPoint x="750" y="699.66" as="sourcePoint" />
            <mxPoint x="750" y="799.66" as="targetPoint" />
          </mxGeometry>
        </mxCell>
        <mxCell id="PCIISM8drCVlrjOnqSXP-106" value="" style="endArrow=none;html=1;rounded=0;fontSize=12;" parent="1" edge="1">
          <mxGeometry width="50" height="50" relative="1" as="geometry">
            <mxPoint x="750" y="799.66" as="sourcePoint" />
            <mxPoint x="550" y="799.66" as="targetPoint" />
          </mxGeometry>
        </mxCell>
        <mxCell id="PCIISM8drCVlrjOnqSXP-107" value="1" style="text;html=1;align=center;verticalAlign=middle;resizable=0;points=[];autosize=1;strokeColor=none;fillColor=none;fontSize=12;" parent="1" vertex="1">
          <mxGeometry x="680" y="490" width="20" height="20" as="geometry" />
        </mxCell>
        <mxCell id="PCIISM8drCVlrjOnqSXP-108" value="2" style="text;html=1;align=center;verticalAlign=middle;resizable=0;points=[];autosize=1;strokeColor=none;fillColor=none;fontSize=12;" parent="1" vertex="1">
          <mxGeometry x="600" y="490" width="20" height="20" as="geometry" />
        </mxCell>
        <mxCell id="PCIISM8drCVlrjOnqSXP-109" value="3" style="text;html=1;align=center;verticalAlign=middle;resizable=0;points=[];autosize=1;strokeColor=none;fillColor=none;fontSize=12;" parent="1" vertex="1">
          <mxGeometry x="680" y="530" width="20" height="20" as="geometry" />
        </mxCell>
        <mxCell id="PCIISM8drCVlrjOnqSXP-110" value="4" style="text;html=1;align=center;verticalAlign=middle;resizable=0;points=[];autosize=1;strokeColor=none;fillColor=none;fontSize=12;" parent="1" vertex="1">
          <mxGeometry x="600" y="530" width="20" height="20" as="geometry" />
        </mxCell>
        <mxCell id="PCIISM8drCVlrjOnqSXP-111" value="1" style="text;html=1;align=center;verticalAlign=middle;resizable=0;points=[];autosize=1;strokeColor=none;fillColor=none;fontSize=12;" parent="1" vertex="1">
          <mxGeometry x="680" y="730" width="20" height="20" as="geometry" />
        </mxCell>
        <mxCell id="PCIISM8drCVlrjOnqSXP-112" value="2" style="text;html=1;align=center;verticalAlign=middle;resizable=0;points=[];autosize=1;strokeColor=none;fillColor=none;fontSize=12;" parent="1" vertex="1">
          <mxGeometry x="600" y="730" width="20" height="20" as="geometry" />
        </mxCell>
        <mxCell id="PCIISM8drCVlrjOnqSXP-113" value="&lt;font style=&quot;font-size: 20px&quot;&gt;x2&lt;br&gt;&lt;/font&gt;" style="text;html=1;align=center;verticalAlign=middle;resizable=0;points=[];autosize=1;strokeColor=none;fillColor=none;" parent="1" vertex="1">
          <mxGeometry x="420" y="740" width="40" height="20" as="geometry" />
        </mxCell>
        <mxCell id="PCIISM8drCVlrjOnqSXP-116" value="&lt;font style=&quot;font-size: 12px&quot;&gt;1&lt;/font&gt;" style="rounded=0;whiteSpace=wrap;html=1;" parent="1" vertex="1">
          <mxGeometry x="160.69" y="890" width="40" height="20" as="geometry" />
        </mxCell>
        <mxCell id="PCIISM8drCVlrjOnqSXP-117" value="" style="rounded=0;whiteSpace=wrap;html=1;" parent="1" vertex="1">
          <mxGeometry x="590" y="900" width="40" height="10" as="geometry" />
        </mxCell>
        <mxCell id="PCIISM8drCVlrjOnqSXP-118" value="&lt;font style=&quot;font-size: 20px&quot;&gt;x1&lt;br&gt;&lt;/font&gt;" style="text;html=1;align=center;verticalAlign=middle;resizable=0;points=[];autosize=1;strokeColor=none;fillColor=none;" parent="1" vertex="1">
          <mxGeometry x="420.69" y="890" width="40" height="20" as="geometry" />
        </mxCell>
        <mxCell id="PCIISM8drCVlrjOnqSXP-119" value="&lt;font style=&quot;font-size: 12px&quot;&gt;1&lt;/font&gt;" style="text;html=1;align=center;verticalAlign=middle;resizable=0;points=[];autosize=1;strokeColor=none;fillColor=none;fontSize=20;" parent="1" vertex="1">
          <mxGeometry x="600" y="875" width="20" height="30" as="geometry" />
        </mxCell>
        <mxCell id="_89epsZIXxUxAZ4oZpQ4-1" value="" style="rounded=0;whiteSpace=wrap;html=1;" parent="1" vertex="1">
          <mxGeometry x="589.31" y="1195" width="40" height="10" as="geometry" />
        </mxCell>
        <mxCell id="_89epsZIXxUxAZ4oZpQ4-2" value="&lt;font style=&quot;font-size: 12px&quot;&gt;4&lt;/font&gt;" style="text;html=1;align=center;verticalAlign=middle;resizable=0;points=[];autosize=1;strokeColor=none;fillColor=none;fontSize=20;" parent="1" vertex="1">
          <mxGeometry x="594.31" y="1165" width="30" height="40" as="geometry" />
        </mxCell>
        <mxCell id="_89epsZIXxUxAZ4oZpQ4-3" value="" style="rounded=0;whiteSpace=wrap;html=1;rotation=90;" parent="1" vertex="1">
          <mxGeometry x="550.69" y="1230" width="40" height="10" as="geometry" />
        </mxCell>
        <mxCell id="_89epsZIXxUxAZ4oZpQ4-4" value="&lt;font style=&quot;font-size: 12px&quot;&gt;6&lt;/font&gt;" style="text;html=1;align=center;verticalAlign=middle;resizable=0;points=[];autosize=1;strokeColor=none;fillColor=none;fontSize=20;" parent="1" vertex="1">
          <mxGeometry x="575" y="1215" width="30" height="40" as="geometry" />
        </mxCell>
        <mxCell id="_89epsZIXxUxAZ4oZpQ4-5" value="" style="rounded=0;whiteSpace=wrap;html=1;rotation=90;" parent="1" vertex="1">
          <mxGeometry x="550.69" y="1280" width="40" height="10" as="geometry" />
        </mxCell>
        <mxCell id="_89epsZIXxUxAZ4oZpQ4-6" value="&lt;font style=&quot;font-size: 12px&quot;&gt;7&lt;/font&gt;" style="text;html=1;align=center;verticalAlign=middle;resizable=0;points=[];autosize=1;strokeColor=none;fillColor=none;fontSize=20;" parent="1" vertex="1">
          <mxGeometry x="575" y="1265" width="30" height="40" as="geometry" />
        </mxCell>
        <mxCell id="_89epsZIXxUxAZ4oZpQ4-7" value="" style="rounded=0;whiteSpace=wrap;html=1;rotation=90;" parent="1" vertex="1">
          <mxGeometry x="550.69" y="1330" width="40" height="10" as="geometry" />
        </mxCell>
        <mxCell id="_89epsZIXxUxAZ4oZpQ4-8" value="&lt;font style=&quot;font-size: 12px&quot;&gt;8&lt;/font&gt;" style="text;html=1;align=center;verticalAlign=middle;resizable=0;points=[];autosize=1;strokeColor=none;fillColor=none;fontSize=20;" parent="1" vertex="1">
          <mxGeometry x="575" y="1315" width="30" height="40" as="geometry" />
        </mxCell>
        <mxCell id="_89epsZIXxUxAZ4oZpQ4-9" value="" style="rounded=0;whiteSpace=wrap;html=1;rotation=90;" parent="1" vertex="1">
          <mxGeometry x="550.69" y="1380" width="40" height="10" as="geometry" />
        </mxCell>
        <mxCell id="_89epsZIXxUxAZ4oZpQ4-10" value="&lt;font style=&quot;font-size: 12px&quot;&gt;9&lt;/font&gt;" style="text;html=1;align=center;verticalAlign=middle;resizable=0;points=[];autosize=1;strokeColor=none;fillColor=none;fontSize=20;" parent="1" vertex="1">
          <mxGeometry x="575" y="1365" width="30" height="40" as="geometry" />
        </mxCell>
        <mxCell id="_89epsZIXxUxAZ4oZpQ4-11" value="" style="rounded=0;whiteSpace=wrap;html=1;rotation=90;" parent="1" vertex="1">
          <mxGeometry x="629.31" y="1230" width="40" height="10" as="geometry" />
        </mxCell>
        <mxCell id="_89epsZIXxUxAZ4oZpQ4-12" value="" style="rounded=0;whiteSpace=wrap;html=1;rotation=90;" parent="1" vertex="1">
          <mxGeometry x="629.31" y="1280" width="40" height="10" as="geometry" />
        </mxCell>
        <mxCell id="_89epsZIXxUxAZ4oZpQ4-13" value="" style="rounded=0;whiteSpace=wrap;html=1;rotation=90;" parent="1" vertex="1">
          <mxGeometry x="629.31" y="1330" width="40" height="10" as="geometry" />
        </mxCell>
        <mxCell id="_89epsZIXxUxAZ4oZpQ4-14" value="" style="rounded=0;whiteSpace=wrap;html=1;rotation=90;" parent="1" vertex="1">
          <mxGeometry x="629.31" y="1380" width="40" height="10" as="geometry" />
        </mxCell>
        <mxCell id="_89epsZIXxUxAZ4oZpQ4-15" value="&lt;font style=&quot;font-size: 12px&quot;&gt;5&lt;/font&gt;" style="text;html=1;align=center;verticalAlign=middle;resizable=0;points=[];autosize=1;strokeColor=none;fillColor=none;fontSize=20;" parent="1" vertex="1">
          <mxGeometry x="615" y="1215" width="30" height="40" as="geometry" />
        </mxCell>
        <mxCell id="_89epsZIXxUxAZ4oZpQ4-16" value="&lt;font style=&quot;font-size: 12px&quot;&gt;1&lt;/font&gt;" style="text;html=1;align=center;verticalAlign=middle;resizable=0;points=[];autosize=1;strokeColor=none;fillColor=none;fontSize=20;" parent="1" vertex="1">
          <mxGeometry x="620" y="1270" width="20" height="30" as="geometry" />
        </mxCell>
        <mxCell id="_89epsZIXxUxAZ4oZpQ4-17" value="&lt;font style=&quot;font-size: 12px&quot;&gt;3&lt;/font&gt;" style="text;html=1;align=center;verticalAlign=middle;resizable=0;points=[];autosize=1;strokeColor=none;fillColor=none;fontSize=20;" parent="1" vertex="1">
          <mxGeometry x="615" y="1315" width="30" height="40" as="geometry" />
        </mxCell>
        <mxCell id="_89epsZIXxUxAZ4oZpQ4-18" value="&lt;font style=&quot;font-size: 12px&quot;&gt;2&lt;/font&gt;" style="text;html=1;align=center;verticalAlign=middle;resizable=0;points=[];autosize=1;strokeColor=none;fillColor=none;fontSize=20;" parent="1" vertex="1">
          <mxGeometry x="615" y="1365" width="30" height="40" as="geometry" />
        </mxCell>
        <mxCell id="_89epsZIXxUxAZ4oZpQ4-19" value="&lt;font style=&quot;font-size: 12px&quot;&gt;4&lt;/font&gt;" style="rounded=0;whiteSpace=wrap;html=1;" parent="1" vertex="1">
          <mxGeometry x="180" y="1185" width="40" height="20" as="geometry" />
        </mxCell>
        <mxCell id="_89epsZIXxUxAZ4oZpQ4-20" value="&lt;font style=&quot;font-size: 12px&quot;&gt;5&lt;/font&gt;" style="rounded=0;whiteSpace=wrap;html=1;rotation=90;" parent="1" vertex="1">
          <mxGeometry x="140" y="1217" width="40" height="20" as="geometry" />
        </mxCell>
        <mxCell id="_89epsZIXxUxAZ4oZpQ4-21" value="&lt;font style=&quot;font-size: 12px&quot;&gt;1&lt;/font&gt;" style="rounded=0;whiteSpace=wrap;html=1;rotation=90;" parent="1" vertex="1">
          <mxGeometry x="140" y="1267" width="40" height="20" as="geometry" />
        </mxCell>
        <mxCell id="_89epsZIXxUxAZ4oZpQ4-22" value="&lt;font style=&quot;font-size: 12px&quot;&gt;3&lt;/font&gt;" style="rounded=0;whiteSpace=wrap;html=1;rotation=90;" parent="1" vertex="1">
          <mxGeometry x="140" y="1317" width="40" height="20" as="geometry" />
        </mxCell>
        <mxCell id="_89epsZIXxUxAZ4oZpQ4-23" value="&lt;font style=&quot;font-size: 12px&quot;&gt;2&lt;/font&gt;" style="rounded=0;whiteSpace=wrap;html=1;rotation=90;" parent="1" vertex="1">
          <mxGeometry x="140" y="1367" width="40" height="20" as="geometry" />
        </mxCell>
        <mxCell id="_89epsZIXxUxAZ4oZpQ4-24" value="&lt;font style=&quot;font-size: 12px&quot;&gt;6&lt;/font&gt;" style="rounded=0;whiteSpace=wrap;html=1;rotation=90;" parent="1" vertex="1">
          <mxGeometry x="220" y="1215" width="40" height="20" as="geometry" />
        </mxCell>
        <mxCell id="_89epsZIXxUxAZ4oZpQ4-25" value="&lt;font style=&quot;font-size: 12px&quot;&gt;7&lt;/font&gt;" style="rounded=0;whiteSpace=wrap;html=1;rotation=90;" parent="1" vertex="1">
          <mxGeometry x="220" y="1265" width="40" height="20" as="geometry" />
        </mxCell>
        <mxCell id="_89epsZIXxUxAZ4oZpQ4-26" value="&lt;font style=&quot;font-size: 12px&quot;&gt;8&lt;/font&gt;" style="rounded=0;whiteSpace=wrap;html=1;rotation=90;" parent="1" vertex="1">
          <mxGeometry x="220" y="1315" width="40" height="20" as="geometry" />
        </mxCell>
        <mxCell id="_89epsZIXxUxAZ4oZpQ4-27" value="&lt;font style=&quot;font-size: 12px&quot;&gt;9&lt;/font&gt;" style="rounded=0;whiteSpace=wrap;html=1;rotation=90;" parent="1" vertex="1">
          <mxGeometry x="220" y="1365" width="40" height="20" as="geometry" />
        </mxCell>
        <mxCell id="_89epsZIXxUxAZ4oZpQ4-28" value="&lt;font style=&quot;font-size: 20px&quot;&gt;Переключатель поворотников&lt;br&gt;и света&lt;br&gt;&lt;/font&gt;" style="text;html=1;align=center;verticalAlign=middle;resizable=0;points=[];autosize=1;strokeColor=none;fillColor=none;" parent="1" vertex="1">
          <mxGeometry x="260" y="1157" width="300" height="60" as="geometry" />
        </mxCell>
        <mxCell id="WwYT0WqHH1WILmcSLiad-1" value="" style="rounded=0;whiteSpace=wrap;html=1;" parent="1" vertex="1">
          <mxGeometry x="587.6199999999999" y="2290" width="40" height="10" as="geometry" />
        </mxCell>
        <mxCell id="WwYT0WqHH1WILmcSLiad-2" value="&lt;font style=&quot;font-size: 12px&quot;&gt;M&lt;/font&gt;" style="text;html=1;align=center;verticalAlign=middle;resizable=0;points=[];autosize=1;strokeColor=none;fillColor=none;fontSize=20;" parent="1" vertex="1">
          <mxGeometry x="592.6199999999999" y="2260" width="30" height="40" as="geometry" />
        </mxCell>
        <mxCell id="WwYT0WqHH1WILmcSLiad-3" value="" style="rounded=0;whiteSpace=wrap;html=1;" parent="1" vertex="1">
          <mxGeometry x="538.31" y="2330" width="40" height="10" as="geometry" />
        </mxCell>
        <mxCell id="WwYT0WqHH1WILmcSLiad-4" value="&lt;font style=&quot;font-size: 12px&quot;&gt;L&lt;/font&gt;" style="text;html=1;align=center;verticalAlign=middle;resizable=0;points=[];autosize=1;strokeColor=none;fillColor=none;fontSize=20;" parent="1" vertex="1">
          <mxGeometry x="543.31" y="2300" width="30" height="40" as="geometry" />
        </mxCell>
        <mxCell id="WwYT0WqHH1WILmcSLiad-5" value="" style="rounded=0;whiteSpace=wrap;html=1;" parent="1" vertex="1">
          <mxGeometry x="638.31" y="2330" width="40" height="10" as="geometry" />
        </mxCell>
        <mxCell id="WwYT0WqHH1WILmcSLiad-6" value="&lt;font style=&quot;font-size: 12px&quot;&gt;H&lt;/font&gt;" style="text;html=1;align=center;verticalAlign=middle;resizable=0;points=[];autosize=1;strokeColor=none;fillColor=none;fontSize=20;" parent="1" vertex="1">
          <mxGeometry x="643.31" y="2300" width="30" height="40" as="geometry" />
        </mxCell>
        <mxCell id="WwYT0WqHH1WILmcSLiad-7" value="" style="rounded=0;whiteSpace=wrap;html=1;" parent="1" vertex="1">
          <mxGeometry x="538.31" y="2370" width="40" height="10" as="geometry" />
        </mxCell>
        <mxCell id="WwYT0WqHH1WILmcSLiad-8" value="&lt;font style=&quot;font-size: 12px&quot;&gt;B&lt;/font&gt;" style="text;html=1;align=center;verticalAlign=middle;resizable=0;points=[];autosize=1;strokeColor=none;fillColor=none;fontSize=20;" parent="1" vertex="1">
          <mxGeometry x="543.31" y="2340" width="30" height="40" as="geometry" />
        </mxCell>
        <mxCell id="WwYT0WqHH1WILmcSLiad-9" value="" style="rounded=0;whiteSpace=wrap;html=1;" parent="1" vertex="1">
          <mxGeometry x="638.31" y="2370" width="40" height="10" as="geometry" />
        </mxCell>
        <mxCell id="WwYT0WqHH1WILmcSLiad-10" value="&lt;font style=&quot;font-size: 12px&quot;&gt;C&lt;/font&gt;" style="text;html=1;align=center;verticalAlign=middle;resizable=0;points=[];autosize=1;strokeColor=none;fillColor=none;fontSize=20;" parent="1" vertex="1">
          <mxGeometry x="643.31" y="2340" width="30" height="40" as="geometry" />
        </mxCell>
        <mxCell id="WwYT0WqHH1WILmcSLiad-11" value="&lt;div style=&quot;font-size: 15px;&quot;&gt;&lt;font style=&quot;font-size: 15px;&quot;&gt;Выключатель вентилятора печки.&lt;/font&gt;&lt;/div&gt;&lt;div style=&quot;font-size: 15px;&quot;&gt;&lt;font style=&quot;font-size: 15px;&quot;&gt;M = Medium speed&lt;/font&gt;&lt;/div&gt;&lt;div style=&quot;font-size: 15px;&quot;&gt;&lt;font style=&quot;font-size: 15px;&quot;&gt;L = Low speed&lt;/font&gt;&lt;/div&gt;&lt;div style=&quot;font-size: 15px;&quot;&gt;&lt;font style=&quot;font-size: 15px;&quot;&gt;H = High speed&lt;/font&gt;&lt;/div&gt;&lt;div style=&quot;font-size: 15px;&quot;&gt;&lt;font style=&quot;font-size: 15px;&quot;&gt;B = Battery (power supply)&lt;/font&gt;&lt;/div&gt;&lt;div style=&quot;font-size: 15px;&quot;&gt;&lt;font style=&quot;font-size: 15px;&quot;&gt;C = Aux power output&lt;/font&gt;&lt;/div&gt;&lt;div style=&quot;font-size: 15px;&quot;&gt;&lt;font style=&quot;font-size: 15px;&quot;&gt;&lt;br&gt;&lt;/font&gt;&lt;/div&gt;&lt;div style=&quot;font-size: 15px;&quot;&gt;&lt;font style=&quot;font-size: 15px;&quot;&gt;Схема замыканий:&lt;/font&gt;&lt;/div&gt;&lt;div style=&quot;font-size: 15px;&quot;&gt;&lt;font style=&quot;font-size: 15px;&quot;&gt;Положение 0 : Контакты L+H = обесточить = замкнуть нагрузку на массу&lt;/font&gt;&lt;/div&gt;&lt;div style=&quot;font-size: 15px;&quot;&gt;&lt;font style=&quot;font-size: 15px;&quot;&gt;Положение 1 : Контакты L+B+C&lt;/font&gt;&lt;/div&gt;&lt;div style=&quot;font-size: 15px;&quot;&gt;&lt;font style=&quot;font-size: 15px;&quot;&gt;Положение 2 : Контакты M+B+C&lt;/font&gt;&lt;/div&gt;&lt;div style=&quot;font-size: 15px;&quot;&gt;&lt;font style=&quot;font-size: 15px;&quot;&gt;Положение 3 : Контакты H+B+C&lt;/font&gt;&lt;/div&gt;" style="text;html=1;align=left;verticalAlign=middle;resizable=0;points=[];autosize=1;strokeColor=none;fillColor=none;" parent="1" vertex="1">
          <mxGeometry x="80" y="2260" width="530" height="230" as="geometry" />
        </mxCell>
        <mxCell id="Eo9nAwtSOePqqUTVBN_c-1" value="" style="rounded=0;whiteSpace=wrap;html=1;" vertex="1" parent="1">
          <mxGeometry x="588.31" y="1480" width="40" height="10" as="geometry" />
        </mxCell>
        <mxCell id="Eo9nAwtSOePqqUTVBN_c-2" value="&lt;font style=&quot;font-size: 12px&quot;&gt;4&lt;/font&gt;" style="text;html=1;align=center;verticalAlign=middle;resizable=0;points=[];autosize=1;strokeColor=none;fillColor=none;fontSize=20;" vertex="1" parent="1">
          <mxGeometry x="593.31" y="1450" width="30" height="40" as="geometry" />
        </mxCell>
        <mxCell id="Eo9nAwtSOePqqUTVBN_c-3" value="" style="rounded=0;whiteSpace=wrap;html=1;rotation=90;" vertex="1" parent="1">
          <mxGeometry x="549.69" y="1515" width="40" height="10" as="geometry" />
        </mxCell>
        <mxCell id="Eo9nAwtSOePqqUTVBN_c-4" value="&lt;font style=&quot;font-size: 12px&quot;&gt;6&lt;/font&gt;" style="text;html=1;align=center;verticalAlign=middle;resizable=0;points=[];autosize=1;strokeColor=none;fillColor=none;fontSize=20;" vertex="1" parent="1">
          <mxGeometry x="574" y="1500" width="30" height="40" as="geometry" />
        </mxCell>
        <mxCell id="Eo9nAwtSOePqqUTVBN_c-5" value="" style="rounded=0;whiteSpace=wrap;html=1;rotation=90;" vertex="1" parent="1">
          <mxGeometry x="549.69" y="1565" width="40" height="10" as="geometry" />
        </mxCell>
        <mxCell id="Eo9nAwtSOePqqUTVBN_c-6" value="&lt;font style=&quot;font-size: 12px&quot;&gt;7&lt;/font&gt;" style="text;html=1;align=center;verticalAlign=middle;resizable=0;points=[];autosize=1;strokeColor=none;fillColor=none;fontSize=20;" vertex="1" parent="1">
          <mxGeometry x="574" y="1550" width="30" height="40" as="geometry" />
        </mxCell>
        <mxCell id="Eo9nAwtSOePqqUTVBN_c-7" value="" style="rounded=0;whiteSpace=wrap;html=1;rotation=90;" vertex="1" parent="1">
          <mxGeometry x="549.69" y="1615" width="40" height="10" as="geometry" />
        </mxCell>
        <mxCell id="Eo9nAwtSOePqqUTVBN_c-8" value="&lt;font style=&quot;font-size: 12px&quot;&gt;8&lt;/font&gt;" style="text;html=1;align=center;verticalAlign=middle;resizable=0;points=[];autosize=1;strokeColor=none;fillColor=none;fontSize=20;" vertex="1" parent="1">
          <mxGeometry x="574" y="1600" width="30" height="40" as="geometry" />
        </mxCell>
        <mxCell id="Eo9nAwtSOePqqUTVBN_c-9" value="" style="rounded=0;whiteSpace=wrap;html=1;rotation=90;" vertex="1" parent="1">
          <mxGeometry x="549.69" y="1665" width="40" height="10" as="geometry" />
        </mxCell>
        <mxCell id="Eo9nAwtSOePqqUTVBN_c-10" value="&lt;font style=&quot;font-size: 12px&quot;&gt;9&lt;/font&gt;" style="text;html=1;align=center;verticalAlign=middle;resizable=0;points=[];autosize=1;strokeColor=none;fillColor=none;fontSize=20;" vertex="1" parent="1">
          <mxGeometry x="574" y="1650" width="30" height="40" as="geometry" />
        </mxCell>
        <mxCell id="Eo9nAwtSOePqqUTVBN_c-11" value="" style="rounded=0;whiteSpace=wrap;html=1;rotation=90;" vertex="1" parent="1">
          <mxGeometry x="628.31" y="1515" width="40" height="10" as="geometry" />
        </mxCell>
        <mxCell id="Eo9nAwtSOePqqUTVBN_c-12" value="" style="rounded=0;whiteSpace=wrap;html=1;rotation=90;" vertex="1" parent="1">
          <mxGeometry x="628.31" y="1565" width="40" height="10" as="geometry" />
        </mxCell>
        <mxCell id="Eo9nAwtSOePqqUTVBN_c-13" value="" style="rounded=0;whiteSpace=wrap;html=1;rotation=90;" vertex="1" parent="1">
          <mxGeometry x="628.31" y="1615" width="40" height="10" as="geometry" />
        </mxCell>
        <mxCell id="Eo9nAwtSOePqqUTVBN_c-14" value="" style="rounded=0;whiteSpace=wrap;html=1;rotation=90;" vertex="1" parent="1">
          <mxGeometry x="628.31" y="1665" width="40" height="10" as="geometry" />
        </mxCell>
        <mxCell id="Eo9nAwtSOePqqUTVBN_c-15" value="&lt;font style=&quot;font-size: 12px&quot;&gt;5&lt;/font&gt;" style="text;html=1;align=center;verticalAlign=middle;resizable=0;points=[];autosize=1;strokeColor=none;fillColor=none;fontSize=20;" vertex="1" parent="1">
          <mxGeometry x="614" y="1500" width="30" height="40" as="geometry" />
        </mxCell>
        <mxCell id="Eo9nAwtSOePqqUTVBN_c-16" value="&lt;font style=&quot;font-size: 12px&quot;&gt;1&lt;/font&gt;" style="text;html=1;align=center;verticalAlign=middle;resizable=0;points=[];autosize=1;strokeColor=none;fillColor=none;fontSize=20;" vertex="1" parent="1">
          <mxGeometry x="619" y="1555" width="20" height="30" as="geometry" />
        </mxCell>
        <mxCell id="Eo9nAwtSOePqqUTVBN_c-17" value="&lt;font style=&quot;font-size: 12px&quot;&gt;3&lt;/font&gt;" style="text;html=1;align=center;verticalAlign=middle;resizable=0;points=[];autosize=1;strokeColor=none;fillColor=none;fontSize=20;" vertex="1" parent="1">
          <mxGeometry x="614" y="1600" width="30" height="40" as="geometry" />
        </mxCell>
        <mxCell id="Eo9nAwtSOePqqUTVBN_c-18" value="&lt;font style=&quot;font-size: 12px&quot;&gt;2&lt;/font&gt;" style="text;html=1;align=center;verticalAlign=middle;resizable=0;points=[];autosize=1;strokeColor=none;fillColor=none;fontSize=20;" vertex="1" parent="1">
          <mxGeometry x="614" y="1650" width="30" height="40" as="geometry" />
        </mxCell>
        <mxCell id="Eo9nAwtSOePqqUTVBN_c-19" value="&lt;font style=&quot;font-size: 12px&quot;&gt;4&lt;/font&gt;" style="rounded=0;whiteSpace=wrap;html=1;" vertex="1" parent="1">
          <mxGeometry x="179" y="1470" width="40" height="20" as="geometry" />
        </mxCell>
        <mxCell id="Eo9nAwtSOePqqUTVBN_c-20" value="&lt;font style=&quot;font-size: 12px&quot;&gt;5&lt;/font&gt;" style="rounded=0;whiteSpace=wrap;html=1;rotation=90;" vertex="1" parent="1">
          <mxGeometry x="139" y="1502" width="40" height="20" as="geometry" />
        </mxCell>
        <mxCell id="Eo9nAwtSOePqqUTVBN_c-21" value="&lt;font style=&quot;font-size: 12px&quot;&gt;1&lt;/font&gt;" style="rounded=0;whiteSpace=wrap;html=1;rotation=90;" vertex="1" parent="1">
          <mxGeometry x="139" y="1552" width="40" height="20" as="geometry" />
        </mxCell>
        <mxCell id="Eo9nAwtSOePqqUTVBN_c-22" value="&lt;font style=&quot;font-size: 12px&quot;&gt;3&lt;/font&gt;" style="rounded=0;whiteSpace=wrap;html=1;rotation=90;" vertex="1" parent="1">
          <mxGeometry x="139" y="1602" width="40" height="20" as="geometry" />
        </mxCell>
        <mxCell id="Eo9nAwtSOePqqUTVBN_c-23" value="&lt;font style=&quot;font-size: 12px&quot;&gt;2&lt;/font&gt;" style="rounded=0;whiteSpace=wrap;html=1;rotation=90;" vertex="1" parent="1">
          <mxGeometry x="139" y="1652" width="40" height="20" as="geometry" />
        </mxCell>
        <mxCell id="Eo9nAwtSOePqqUTVBN_c-24" value="&lt;font style=&quot;font-size: 12px&quot;&gt;6&lt;/font&gt;" style="rounded=0;whiteSpace=wrap;html=1;rotation=90;" vertex="1" parent="1">
          <mxGeometry x="219" y="1500" width="40" height="20" as="geometry" />
        </mxCell>
        <mxCell id="Eo9nAwtSOePqqUTVBN_c-25" value="&lt;font style=&quot;font-size: 12px&quot;&gt;7&lt;/font&gt;" style="rounded=0;whiteSpace=wrap;html=1;rotation=90;" vertex="1" parent="1">
          <mxGeometry x="219" y="1550" width="40" height="20" as="geometry" />
        </mxCell>
        <mxCell id="Eo9nAwtSOePqqUTVBN_c-26" value="&lt;font style=&quot;font-size: 12px&quot;&gt;8&lt;/font&gt;" style="rounded=0;whiteSpace=wrap;html=1;rotation=90;" vertex="1" parent="1">
          <mxGeometry x="219" y="1600" width="40" height="20" as="geometry" />
        </mxCell>
        <mxCell id="Eo9nAwtSOePqqUTVBN_c-27" value="&lt;font style=&quot;font-size: 12px&quot;&gt;9&lt;/font&gt;" style="rounded=0;whiteSpace=wrap;html=1;rotation=90;" vertex="1" parent="1">
          <mxGeometry x="219" y="1650" width="40" height="20" as="geometry" />
        </mxCell>
        <mxCell id="Eo9nAwtSOePqqUTVBN_c-28" value="&lt;font style=&quot;font-size: 20px&quot;&gt;Переключатель дворников&lt;br&gt;&lt;/font&gt;" style="text;html=1;align=center;verticalAlign=middle;resizable=0;points=[];autosize=1;strokeColor=none;fillColor=none;" vertex="1" parent="1">
          <mxGeometry x="279.31" y="1440" width="270" height="40" as="geometry" />
        </mxCell>
        <mxCell id="Eo9nAwtSOePqqUTVBN_c-30" value="" style="rounded=0;whiteSpace=wrap;html=1;" vertex="1" parent="1">
          <mxGeometry x="510.00000000000006" y="1820" width="40" height="10" as="geometry" />
        </mxCell>
        <mxCell id="Eo9nAwtSOePqqUTVBN_c-31" value="" style="rounded=0;whiteSpace=wrap;html=1;" vertex="1" parent="1">
          <mxGeometry x="590" y="1820" width="40" height="10" as="geometry" />
        </mxCell>
        <mxCell id="Eo9nAwtSOePqqUTVBN_c-32" value="" style="rounded=0;whiteSpace=wrap;html=1;" vertex="1" parent="1">
          <mxGeometry x="670" y="1820" width="40" height="10" as="geometry" />
        </mxCell>
        <mxCell id="Eo9nAwtSOePqqUTVBN_c-34" value="" style="rounded=0;whiteSpace=wrap;html=1;" vertex="1" parent="1">
          <mxGeometry x="510.00000000000006" y="1780" width="40" height="10" as="geometry" />
        </mxCell>
        <mxCell id="Eo9nAwtSOePqqUTVBN_c-35" value="" style="rounded=0;whiteSpace=wrap;html=1;" vertex="1" parent="1">
          <mxGeometry x="590" y="1780" width="40" height="10" as="geometry" />
        </mxCell>
        <mxCell id="Eo9nAwtSOePqqUTVBN_c-36" value="" style="rounded=0;whiteSpace=wrap;html=1;" vertex="1" parent="1">
          <mxGeometry x="670" y="1780" width="40" height="10" as="geometry" />
        </mxCell>
        <mxCell id="Eo9nAwtSOePqqUTVBN_c-37" value="1" style="text;html=1;align=center;verticalAlign=middle;resizable=0;points=[];autosize=1;strokeColor=none;fillColor=none;fontSize=12;" vertex="1" parent="1">
          <mxGeometry x="680" y="1760" width="20" height="20" as="geometry" />
        </mxCell>
        <mxCell id="Eo9nAwtSOePqqUTVBN_c-38" value="2" style="text;html=1;align=center;verticalAlign=middle;resizable=0;points=[];autosize=1;strokeColor=none;fillColor=none;fontSize=12;" vertex="1" parent="1">
          <mxGeometry x="600" y="1760" width="20" height="20" as="geometry" />
        </mxCell>
        <mxCell id="Eo9nAwtSOePqqUTVBN_c-39" value="3" style="text;html=1;align=center;verticalAlign=middle;resizable=0;points=[];autosize=1;strokeColor=none;fillColor=none;fontSize=12;" vertex="1" parent="1">
          <mxGeometry x="520" y="1760" width="20" height="20" as="geometry" />
        </mxCell>
        <mxCell id="Eo9nAwtSOePqqUTVBN_c-41" value="5" style="text;html=1;align=center;verticalAlign=middle;resizable=0;points=[];autosize=1;strokeColor=none;fillColor=none;fontSize=12;" vertex="1" parent="1">
          <mxGeometry x="680" y="1800" width="20" height="20" as="geometry" />
        </mxCell>
        <mxCell id="Eo9nAwtSOePqqUTVBN_c-42" value="6" style="text;html=1;align=center;verticalAlign=middle;resizable=0;points=[];autosize=1;strokeColor=none;fillColor=none;fontSize=12;" vertex="1" parent="1">
          <mxGeometry x="600" y="1800" width="20" height="20" as="geometry" />
        </mxCell>
        <mxCell id="Eo9nAwtSOePqqUTVBN_c-43" value="7" style="text;html=1;align=center;verticalAlign=middle;resizable=0;points=[];autosize=1;strokeColor=none;fillColor=none;fontSize=12;" vertex="1" parent="1">
          <mxGeometry x="520" y="1800" width="20" height="20" as="geometry" />
        </mxCell>
        <mxCell id="Eo9nAwtSOePqqUTVBN_c-45" value="" style="endArrow=none;html=1;rounded=0;" edge="1" parent="1">
          <mxGeometry width="50" height="50" relative="1" as="geometry">
            <mxPoint x="467.81" y="1884.5" as="sourcePoint" />
            <mxPoint x="467.81" y="1764.5" as="targetPoint" />
          </mxGeometry>
        </mxCell>
        <mxCell id="Eo9nAwtSOePqqUTVBN_c-46" value="" style="endArrow=none;html=1;rounded=0;" edge="1" parent="1">
          <mxGeometry width="50" height="50" relative="1" as="geometry">
            <mxPoint x="507.81" y="1884.5" as="sourcePoint" />
            <mxPoint x="467.81" y="1884.5" as="targetPoint" />
          </mxGeometry>
        </mxCell>
        <mxCell id="Eo9nAwtSOePqqUTVBN_c-47" value="" style="endArrow=none;html=1;rounded=0;" edge="1" parent="1">
          <mxGeometry width="50" height="50" relative="1" as="geometry">
            <mxPoint x="507.81" y="1884.5" as="sourcePoint" />
            <mxPoint x="507.81" y="1844.5" as="targetPoint" />
          </mxGeometry>
        </mxCell>
        <mxCell id="Eo9nAwtSOePqqUTVBN_c-48" value="" style="endArrow=none;html=1;rounded=0;" edge="1" parent="1">
          <mxGeometry width="50" height="50" relative="1" as="geometry">
            <mxPoint x="507.81" y="1844.5" as="sourcePoint" />
            <mxPoint x="710" y="1845" as="targetPoint" />
          </mxGeometry>
        </mxCell>
        <mxCell id="Eo9nAwtSOePqqUTVBN_c-49" value="" style="endArrow=none;html=1;rounded=0;" edge="1" parent="1">
          <mxGeometry width="50" height="50" relative="1" as="geometry">
            <mxPoint x="749.31" y="1884.5" as="sourcePoint" />
            <mxPoint x="709.31" y="1884.5" as="targetPoint" />
          </mxGeometry>
        </mxCell>
        <mxCell id="Eo9nAwtSOePqqUTVBN_c-50" value="" style="endArrow=none;html=1;rounded=0;" edge="1" parent="1">
          <mxGeometry width="50" height="50" relative="1" as="geometry">
            <mxPoint x="710" y="1884.5" as="sourcePoint" />
            <mxPoint x="710" y="1844.5" as="targetPoint" />
          </mxGeometry>
        </mxCell>
        <mxCell id="Eo9nAwtSOePqqUTVBN_c-51" value="" style="endArrow=none;html=1;rounded=0;" edge="1" parent="1">
          <mxGeometry width="50" height="50" relative="1" as="geometry">
            <mxPoint x="750" y="1764.5" as="sourcePoint" />
            <mxPoint x="750" y="1884.5" as="targetPoint" />
          </mxGeometry>
        </mxCell>
        <mxCell id="Eo9nAwtSOePqqUTVBN_c-52" value="" style="endArrow=none;html=1;rounded=0;" edge="1" parent="1">
          <mxGeometry width="50" height="50" relative="1" as="geometry">
            <mxPoint x="507.81" y="1734.5" as="sourcePoint" />
            <mxPoint x="710" y="1735" as="targetPoint" />
          </mxGeometry>
        </mxCell>
        <mxCell id="Eo9nAwtSOePqqUTVBN_c-53" value="" style="endArrow=none;html=1;rounded=0;" edge="1" parent="1">
          <mxGeometry width="50" height="50" relative="1" as="geometry">
            <mxPoint x="710" y="1734.5" as="sourcePoint" />
            <mxPoint x="750" y="1764.5" as="targetPoint" />
          </mxGeometry>
        </mxCell>
        <mxCell id="Eo9nAwtSOePqqUTVBN_c-54" value="" style="endArrow=none;html=1;rounded=0;" edge="1" parent="1">
          <mxGeometry width="50" height="50" relative="1" as="geometry">
            <mxPoint x="467.81" y="1764.5" as="sourcePoint" />
            <mxPoint x="507.81" y="1734.5" as="targetPoint" />
          </mxGeometry>
        </mxCell>
        <mxCell id="Eo9nAwtSOePqqUTVBN_c-55" value="&lt;font style=&quot;font-size: 15px;&quot;&gt;Жгут на дворники&lt;br&gt;1 - на схеме 4, на реле 2&lt;br&gt;2 - на схеме 5, переключатель 53b&lt;br&gt;3 - на схеме 6, переключатель 53&lt;br&gt;4 - на схеме 1, Пред Л 13 Вых&lt;br&gt;5 - на схеме 2, Переключатель 54, Реле 1&lt;br&gt;6 - ПУСТО&lt;br&gt;&lt;/font&gt;" style="text;html=1;align=left;verticalAlign=middle;resizable=0;points=[];autosize=1;strokeColor=none;fillColor=none;" vertex="1" parent="1">
          <mxGeometry x="100" y="1730" width="310" height="140" as="geometry" />
        </mxCell>
        <mxCell id="Eo9nAwtSOePqqUTVBN_c-56" value="" style="rounded=0;whiteSpace=wrap;html=1;" vertex="1" parent="1">
          <mxGeometry x="499" y="2030" width="40" height="10" as="geometry" />
        </mxCell>
        <mxCell id="Eo9nAwtSOePqqUTVBN_c-57" value="" style="rounded=0;whiteSpace=wrap;html=1;" vertex="1" parent="1">
          <mxGeometry x="579" y="2030" width="40" height="10" as="geometry" />
        </mxCell>
        <mxCell id="Eo9nAwtSOePqqUTVBN_c-58" value="" style="rounded=0;whiteSpace=wrap;html=1;" vertex="1" parent="1">
          <mxGeometry x="659" y="2030" width="40" height="10" as="geometry" />
        </mxCell>
        <mxCell id="Eo9nAwtSOePqqUTVBN_c-59" value="" style="rounded=0;whiteSpace=wrap;html=1;" vertex="1" parent="1">
          <mxGeometry x="499" y="1990" width="40" height="10" as="geometry" />
        </mxCell>
        <mxCell id="Eo9nAwtSOePqqUTVBN_c-60" value="" style="rounded=0;whiteSpace=wrap;html=1;" vertex="1" parent="1">
          <mxGeometry x="579" y="1990" width="40" height="10" as="geometry" />
        </mxCell>
        <mxCell id="Eo9nAwtSOePqqUTVBN_c-61" value="" style="rounded=0;whiteSpace=wrap;html=1;" vertex="1" parent="1">
          <mxGeometry x="659" y="1990" width="40" height="10" as="geometry" />
        </mxCell>
        <mxCell id="Eo9nAwtSOePqqUTVBN_c-62" value="1" style="text;html=1;align=center;verticalAlign=middle;resizable=0;points=[];autosize=1;strokeColor=none;fillColor=none;fontSize=12;" vertex="1" parent="1">
          <mxGeometry x="669" y="1970" width="20" height="20" as="geometry" />
        </mxCell>
        <mxCell id="Eo9nAwtSOePqqUTVBN_c-63" value="2" style="text;html=1;align=center;verticalAlign=middle;resizable=0;points=[];autosize=1;strokeColor=none;fillColor=none;fontSize=12;" vertex="1" parent="1">
          <mxGeometry x="589" y="1970" width="20" height="20" as="geometry" />
        </mxCell>
        <mxCell id="Eo9nAwtSOePqqUTVBN_c-64" value="3" style="text;html=1;align=center;verticalAlign=middle;resizable=0;points=[];autosize=1;strokeColor=none;fillColor=none;fontSize=12;" vertex="1" parent="1">
          <mxGeometry x="509" y="1970" width="20" height="20" as="geometry" />
        </mxCell>
        <mxCell id="Eo9nAwtSOePqqUTVBN_c-65" value="5" style="text;html=1;align=center;verticalAlign=middle;resizable=0;points=[];autosize=1;strokeColor=none;fillColor=none;fontSize=12;" vertex="1" parent="1">
          <mxGeometry x="669" y="2010" width="20" height="20" as="geometry" />
        </mxCell>
        <mxCell id="Eo9nAwtSOePqqUTVBN_c-66" value="6" style="text;html=1;align=center;verticalAlign=middle;resizable=0;points=[];autosize=1;strokeColor=none;fillColor=none;fontSize=12;" vertex="1" parent="1">
          <mxGeometry x="589" y="2010" width="20" height="20" as="geometry" />
        </mxCell>
        <mxCell id="Eo9nAwtSOePqqUTVBN_c-67" value="7" style="text;html=1;align=center;verticalAlign=middle;resizable=0;points=[];autosize=1;strokeColor=none;fillColor=none;fontSize=12;" vertex="1" parent="1">
          <mxGeometry x="509" y="2010" width="20" height="20" as="geometry" />
        </mxCell>
        <mxCell id="Eo9nAwtSOePqqUTVBN_c-68" value="" style="endArrow=none;html=1;rounded=0;" edge="1" parent="1">
          <mxGeometry width="50" height="50" relative="1" as="geometry">
            <mxPoint x="456.81" y="2094.5" as="sourcePoint" />
            <mxPoint x="456.81" y="1974.5" as="targetPoint" />
          </mxGeometry>
        </mxCell>
        <mxCell id="Eo9nAwtSOePqqUTVBN_c-69" value="" style="endArrow=none;html=1;rounded=0;" edge="1" parent="1">
          <mxGeometry width="50" height="50" relative="1" as="geometry">
            <mxPoint x="496.80999999999995" y="2094.5" as="sourcePoint" />
            <mxPoint x="456.81" y="2094.5" as="targetPoint" />
          </mxGeometry>
        </mxCell>
        <mxCell id="Eo9nAwtSOePqqUTVBN_c-70" value="" style="endArrow=none;html=1;rounded=0;" edge="1" parent="1">
          <mxGeometry width="50" height="50" relative="1" as="geometry">
            <mxPoint x="496.80999999999995" y="2094.5" as="sourcePoint" />
            <mxPoint x="496.80999999999995" y="2054.5" as="targetPoint" />
          </mxGeometry>
        </mxCell>
        <mxCell id="Eo9nAwtSOePqqUTVBN_c-71" value="" style="endArrow=none;html=1;rounded=0;" edge="1" parent="1">
          <mxGeometry width="50" height="50" relative="1" as="geometry">
            <mxPoint x="496.80999999999995" y="2054.5" as="sourcePoint" />
            <mxPoint x="699" y="2055" as="targetPoint" />
          </mxGeometry>
        </mxCell>
        <mxCell id="Eo9nAwtSOePqqUTVBN_c-72" value="" style="endArrow=none;html=1;rounded=0;" edge="1" parent="1">
          <mxGeometry width="50" height="50" relative="1" as="geometry">
            <mxPoint x="738.31" y="2094.5" as="sourcePoint" />
            <mxPoint x="698.31" y="2094.5" as="targetPoint" />
          </mxGeometry>
        </mxCell>
        <mxCell id="Eo9nAwtSOePqqUTVBN_c-73" value="" style="endArrow=none;html=1;rounded=0;" edge="1" parent="1">
          <mxGeometry width="50" height="50" relative="1" as="geometry">
            <mxPoint x="699" y="2094.5" as="sourcePoint" />
            <mxPoint x="699" y="2054.5" as="targetPoint" />
          </mxGeometry>
        </mxCell>
        <mxCell id="Eo9nAwtSOePqqUTVBN_c-74" value="" style="endArrow=none;html=1;rounded=0;" edge="1" parent="1">
          <mxGeometry width="50" height="50" relative="1" as="geometry">
            <mxPoint x="739" y="1974.5" as="sourcePoint" />
            <mxPoint x="739" y="2094.5" as="targetPoint" />
          </mxGeometry>
        </mxCell>
        <mxCell id="Eo9nAwtSOePqqUTVBN_c-75" value="" style="endArrow=none;html=1;rounded=0;" edge="1" parent="1">
          <mxGeometry width="50" height="50" relative="1" as="geometry">
            <mxPoint x="496.80999999999995" y="1944.5" as="sourcePoint" />
            <mxPoint x="699" y="1945" as="targetPoint" />
          </mxGeometry>
        </mxCell>
        <mxCell id="Eo9nAwtSOePqqUTVBN_c-76" value="" style="endArrow=none;html=1;rounded=0;" edge="1" parent="1">
          <mxGeometry width="50" height="50" relative="1" as="geometry">
            <mxPoint x="699" y="1944.5" as="sourcePoint" />
            <mxPoint x="739" y="1974.5" as="targetPoint" />
          </mxGeometry>
        </mxCell>
        <mxCell id="Eo9nAwtSOePqqUTVBN_c-77" value="" style="endArrow=none;html=1;rounded=0;" edge="1" parent="1">
          <mxGeometry width="50" height="50" relative="1" as="geometry">
            <mxPoint x="456.81" y="1974.5" as="sourcePoint" />
            <mxPoint x="496.80999999999995" y="1944.5" as="targetPoint" />
          </mxGeometry>
        </mxCell>
        <mxCell id="Eo9nAwtSOePqqUTVBN_c-78" value="&lt;font style=&quot;font-size: 15px;&quot;&gt;Жгут на реле дворников&lt;br&gt;1 - Переключатель 54, Жгут 5&lt;br&gt;2 - Жгут 1&lt;br&gt;3 - Переключатель 31b2&lt;br&gt;4 - Масса&lt;br&gt;5 - Переключатель 54-2&lt;br&gt;6 - Переключатель 53-c (W), Насос омывателя&lt;br&gt;&lt;/font&gt;" style="text;html=1;align=left;verticalAlign=middle;resizable=0;points=[];autosize=1;strokeColor=none;fillColor=none;" vertex="1" parent="1">
          <mxGeometry x="100" y="1930" width="350" height="140" as="geometry" />
        </mxCell>
        <mxCell id="Eo9nAwtSOePqqUTVBN_c-79" value="53" style="text;html=1;align=center;verticalAlign=middle;resizable=0;points=[];autosize=1;strokeColor=none;fillColor=none;" vertex="1" parent="1">
          <mxGeometry x="525" y="1510" width="40" height="30" as="geometry" />
        </mxCell>
        <mxCell id="Eo9nAwtSOePqqUTVBN_c-81" value="53b" style="text;html=1;align=center;verticalAlign=middle;resizable=0;points=[];autosize=1;strokeColor=none;fillColor=none;" vertex="1" parent="1">
          <mxGeometry x="525" y="1555" width="40" height="30" as="geometry" />
        </mxCell>
        <mxCell id="Eo9nAwtSOePqqUTVBN_c-82" value="32 (54-2?)" style="text;html=1;align=center;verticalAlign=middle;resizable=0;points=[];autosize=1;strokeColor=none;fillColor=none;" vertex="1" parent="1">
          <mxGeometry x="495" y="1605" width="80" height="30" as="geometry" />
        </mxCell>
        <mxCell id="Eo9nAwtSOePqqUTVBN_c-83" value="31b2" style="text;html=1;align=center;verticalAlign=middle;resizable=0;points=[];autosize=1;strokeColor=none;fillColor=none;" vertex="1" parent="1">
          <mxGeometry x="659" y="1605" width="50" height="30" as="geometry" />
        </mxCell>
        <mxCell id="Eo9nAwtSOePqqUTVBN_c-85" value="54" style="text;html=1;align=center;verticalAlign=middle;resizable=0;points=[];autosize=1;strokeColor=none;fillColor=none;" vertex="1" parent="1">
          <mxGeometry x="665" y="1555" width="40" height="30" as="geometry" />
        </mxCell>
        <mxCell id="Eo9nAwtSOePqqUTVBN_c-86" value="53c (W)" style="text;html=1;align=center;verticalAlign=middle;resizable=0;points=[];autosize=1;strokeColor=none;fillColor=none;" vertex="1" parent="1">
          <mxGeometry x="660" y="1505" width="70" height="30" as="geometry" />
        </mxCell>
        <mxCell id="Eo9nAwtSOePqqUTVBN_c-87" value="53" style="text;html=1;align=center;verticalAlign=middle;resizable=0;points=[];autosize=1;strokeColor=none;fillColor=none;" vertex="1" parent="1">
          <mxGeometry x="265" y="1495" width="40" height="30" as="geometry" />
        </mxCell>
        <mxCell id="Eo9nAwtSOePqqUTVBN_c-88" value="53b" style="text;html=1;align=center;verticalAlign=middle;resizable=0;points=[];autosize=1;strokeColor=none;fillColor=none;" vertex="1" parent="1">
          <mxGeometry x="265" y="1545" width="40" height="30" as="geometry" />
        </mxCell>
        <mxCell id="Eo9nAwtSOePqqUTVBN_c-89" value="32 (54-2?)" style="text;html=1;align=center;verticalAlign=middle;resizable=0;points=[];autosize=1;strokeColor=none;fillColor=none;" vertex="1" parent="1">
          <mxGeometry x="255" y="1595" width="80" height="30" as="geometry" />
        </mxCell>
        <mxCell id="Eo9nAwtSOePqqUTVBN_c-90" value="31b2" style="text;html=1;align=center;verticalAlign=middle;resizable=0;points=[];autosize=1;strokeColor=none;fillColor=none;" vertex="1" parent="1">
          <mxGeometry x="84" y="1590" width="50" height="30" as="geometry" />
        </mxCell>
        <mxCell id="Eo9nAwtSOePqqUTVBN_c-91" value="54" style="text;html=1;align=center;verticalAlign=middle;resizable=0;points=[];autosize=1;strokeColor=none;fillColor=none;" vertex="1" parent="1">
          <mxGeometry x="90" y="1540" width="40" height="30" as="geometry" />
        </mxCell>
        <mxCell id="Eo9nAwtSOePqqUTVBN_c-92" value="53c (W)" style="text;html=1;align=center;verticalAlign=middle;resizable=0;points=[];autosize=1;strokeColor=none;fillColor=none;" vertex="1" parent="1">
          <mxGeometry x="70" y="1495" width="70" height="30" as="geometry" />
        </mxCell>
        <mxCell id="Eo9nAwtSOePqqUTVBN_c-93" value="" style="rounded=0;whiteSpace=wrap;html=1;" vertex="1" parent="1">
          <mxGeometry x="600" y="2558" width="40" height="10" as="geometry" />
        </mxCell>
        <mxCell id="Eo9nAwtSOePqqUTVBN_c-94" value="&lt;font style=&quot;font-size: 12px&quot;&gt;13&lt;/font&gt;" style="text;html=1;align=center;verticalAlign=middle;resizable=0;points=[];autosize=1;strokeColor=none;fillColor=none;fontSize=20;" vertex="1" parent="1">
          <mxGeometry x="600" y="2528" width="40" height="40" as="geometry" />
        </mxCell>
        <mxCell id="Eo9nAwtSOePqqUTVBN_c-95" value="" style="rounded=0;whiteSpace=wrap;html=1;rotation=90;" vertex="1" parent="1">
          <mxGeometry x="561.3800000000001" y="2593" width="40" height="10" as="geometry" />
        </mxCell>
        <mxCell id="Eo9nAwtSOePqqUTVBN_c-96" value="&lt;font style=&quot;font-size: 12px&quot;&gt;1&lt;/font&gt;" style="text;html=1;align=center;verticalAlign=middle;resizable=0;points=[];autosize=1;strokeColor=none;fillColor=none;fontSize=20;" vertex="1" parent="1">
          <mxGeometry x="625.35" y="2578" width="30" height="40" as="geometry" />
        </mxCell>
        <mxCell id="Eo9nAwtSOePqqUTVBN_c-97" value="" style="rounded=0;whiteSpace=wrap;html=1;rotation=90;" vertex="1" parent="1">
          <mxGeometry x="561.3800000000001" y="2643" width="40" height="10" as="geometry" />
        </mxCell>
        <mxCell id="Eo9nAwtSOePqqUTVBN_c-98" value="&lt;font style=&quot;font-size: 12px&quot;&gt;2&lt;/font&gt;" style="text;html=1;align=center;verticalAlign=middle;resizable=0;points=[];autosize=1;strokeColor=none;fillColor=none;fontSize=20;" vertex="1" parent="1">
          <mxGeometry x="625.35" y="2628" width="30" height="40" as="geometry" />
        </mxCell>
        <mxCell id="Eo9nAwtSOePqqUTVBN_c-99" value="" style="rounded=0;whiteSpace=wrap;html=1;rotation=90;" vertex="1" parent="1">
          <mxGeometry x="561.3800000000001" y="2693" width="40" height="10" as="geometry" />
        </mxCell>
        <mxCell id="Eo9nAwtSOePqqUTVBN_c-100" value="&lt;font style=&quot;font-size: 12px&quot;&gt;3&lt;/font&gt;" style="text;html=1;align=center;verticalAlign=middle;resizable=0;points=[];autosize=1;strokeColor=none;fillColor=none;fontSize=20;" vertex="1" parent="1">
          <mxGeometry x="625.35" y="2678" width="30" height="40" as="geometry" />
        </mxCell>
        <mxCell id="Eo9nAwtSOePqqUTVBN_c-101" value="" style="rounded=0;whiteSpace=wrap;html=1;rotation=90;" vertex="1" parent="1">
          <mxGeometry x="561.3800000000001" y="2743" width="40" height="10" as="geometry" />
        </mxCell>
        <mxCell id="Eo9nAwtSOePqqUTVBN_c-102" value="&lt;font style=&quot;font-size: 12px&quot;&gt;4&lt;/font&gt;" style="text;html=1;align=center;verticalAlign=middle;resizable=0;points=[];autosize=1;strokeColor=none;fillColor=none;fontSize=20;" vertex="1" parent="1">
          <mxGeometry x="625.35" y="2728" width="30" height="40" as="geometry" />
        </mxCell>
        <mxCell id="Eo9nAwtSOePqqUTVBN_c-103" value="" style="rounded=0;whiteSpace=wrap;html=1;rotation=90;" vertex="1" parent="1">
          <mxGeometry x="640" y="2593" width="40" height="10" as="geometry" />
        </mxCell>
        <mxCell id="Eo9nAwtSOePqqUTVBN_c-104" value="" style="rounded=0;whiteSpace=wrap;html=1;rotation=90;" vertex="1" parent="1">
          <mxGeometry x="640" y="2643" width="40" height="10" as="geometry" />
        </mxCell>
        <mxCell id="Eo9nAwtSOePqqUTVBN_c-105" value="" style="rounded=0;whiteSpace=wrap;html=1;rotation=90;" vertex="1" parent="1">
          <mxGeometry x="640" y="2693" width="40" height="10" as="geometry" />
        </mxCell>
        <mxCell id="Eo9nAwtSOePqqUTVBN_c-106" value="" style="rounded=0;whiteSpace=wrap;html=1;rotation=90;" vertex="1" parent="1">
          <mxGeometry x="640" y="2743" width="40" height="10" as="geometry" />
        </mxCell>
        <mxCell id="Eo9nAwtSOePqqUTVBN_c-111" value="&lt;font style=&quot;font-size: 12px&quot;&gt;13&lt;/font&gt;" style="rounded=0;whiteSpace=wrap;html=1;" vertex="1" parent="1">
          <mxGeometry x="190.69" y="2548" width="40" height="20" as="geometry" />
        </mxCell>
        <mxCell id="Eo9nAwtSOePqqUTVBN_c-112" value="&lt;font style=&quot;font-size: 12px&quot;&gt;12&lt;/font&gt;" style="rounded=0;whiteSpace=wrap;html=1;rotation=90;" vertex="1" parent="1">
          <mxGeometry x="225.51999999999998" y="2583" width="40" height="20" as="geometry" />
        </mxCell>
        <mxCell id="Eo9nAwtSOePqqUTVBN_c-113" value="&lt;font style=&quot;font-size: 12px&quot;&gt;11&lt;/font&gt;" style="rounded=0;whiteSpace=wrap;html=1;rotation=90;" vertex="1" parent="1">
          <mxGeometry x="225.51999999999998" y="2633" width="40" height="20" as="geometry" />
        </mxCell>
        <mxCell id="Eo9nAwtSOePqqUTVBN_c-114" value="&lt;font style=&quot;font-size: 12px&quot;&gt;10&lt;/font&gt;" style="rounded=0;whiteSpace=wrap;html=1;rotation=90;" vertex="1" parent="1">
          <mxGeometry x="225.51999999999998" y="2683" width="40" height="20" as="geometry" />
        </mxCell>
        <mxCell id="Eo9nAwtSOePqqUTVBN_c-115" value="&lt;font style=&quot;font-size: 12px&quot;&gt;9&lt;/font&gt;" style="rounded=0;whiteSpace=wrap;html=1;rotation=90;" vertex="1" parent="1">
          <mxGeometry x="225.51999999999998" y="2733" width="40" height="20" as="geometry" />
        </mxCell>
        <mxCell id="Eo9nAwtSOePqqUTVBN_c-120" value="&lt;font style=&quot;font-size: 20px&quot;&gt;Индикаторная доска XPx&lt;br&gt;&lt;/font&gt;" style="text;html=1;align=center;verticalAlign=middle;resizable=0;points=[];autosize=1;strokeColor=none;fillColor=none;" vertex="1" parent="1">
          <mxGeometry x="290.69" y="2530" width="260" height="40" as="geometry" />
        </mxCell>
        <mxCell id="Eo9nAwtSOePqqUTVBN_c-121" value="" style="rounded=0;whiteSpace=wrap;html=1;rotation=90;" vertex="1" parent="1">
          <mxGeometry x="560.3400000000001" y="2795" width="40" height="10" as="geometry" />
        </mxCell>
        <mxCell id="Eo9nAwtSOePqqUTVBN_c-122" value="&lt;font style=&quot;font-size: 12px&quot;&gt;5&lt;/font&gt;" style="text;html=1;align=center;verticalAlign=middle;resizable=0;points=[];autosize=1;strokeColor=none;fillColor=none;fontSize=20;" vertex="1" parent="1">
          <mxGeometry x="624.3100000000001" y="2780" width="30" height="40" as="geometry" />
        </mxCell>
        <mxCell id="Eo9nAwtSOePqqUTVBN_c-123" value="" style="rounded=0;whiteSpace=wrap;html=1;rotation=90;" vertex="1" parent="1">
          <mxGeometry x="560.3400000000001" y="2845" width="40" height="10" as="geometry" />
        </mxCell>
        <mxCell id="Eo9nAwtSOePqqUTVBN_c-124" value="&lt;font style=&quot;font-size: 12px&quot;&gt;6&lt;/font&gt;" style="text;html=1;align=center;verticalAlign=middle;resizable=0;points=[];autosize=1;strokeColor=none;fillColor=none;fontSize=20;" vertex="1" parent="1">
          <mxGeometry x="624.3100000000001" y="2830" width="30" height="40" as="geometry" />
        </mxCell>
        <mxCell id="Eo9nAwtSOePqqUTVBN_c-125" value="" style="rounded=0;whiteSpace=wrap;html=1;rotation=90;" vertex="1" parent="1">
          <mxGeometry x="638.96" y="2795" width="40" height="10" as="geometry" />
        </mxCell>
        <mxCell id="Eo9nAwtSOePqqUTVBN_c-126" value="" style="rounded=0;whiteSpace=wrap;html=1;rotation=90;" vertex="1" parent="1">
          <mxGeometry x="638.96" y="2845" width="40" height="10" as="geometry" />
        </mxCell>
        <mxCell id="Eo9nAwtSOePqqUTVBN_c-129" value="&lt;font style=&quot;font-size: 12px&quot;&gt;8&lt;/font&gt;" style="rounded=0;whiteSpace=wrap;html=1;rotation=90;" vertex="1" parent="1">
          <mxGeometry x="224.48000000000002" y="2785" width="40" height="20" as="geometry" />
        </mxCell>
        <mxCell id="Eo9nAwtSOePqqUTVBN_c-130" value="&lt;font style=&quot;font-size: 12px&quot;&gt;7&lt;/font&gt;" style="rounded=0;whiteSpace=wrap;html=1;rotation=90;" vertex="1" parent="1">
          <mxGeometry x="224.48000000000002" y="2835" width="40" height="20" as="geometry" />
        </mxCell>
        <mxCell id="Eo9nAwtSOePqqUTVBN_c-133" value="&lt;font style=&quot;font-size: 12px&quot;&gt;12&lt;/font&gt;" style="text;html=1;align=center;verticalAlign=middle;resizable=0;points=[];autosize=1;strokeColor=none;fillColor=none;fontSize=20;" vertex="1" parent="1">
          <mxGeometry x="582.62" y="2578" width="40" height="40" as="geometry" />
        </mxCell>
        <mxCell id="Eo9nAwtSOePqqUTVBN_c-134" value="&lt;font style=&quot;font-size: 12px&quot;&gt;11&lt;/font&gt;" style="text;html=1;align=center;verticalAlign=middle;resizable=0;points=[];autosize=1;strokeColor=none;fillColor=none;fontSize=20;" vertex="1" parent="1">
          <mxGeometry x="582.62" y="2628" width="40" height="40" as="geometry" />
        </mxCell>
        <mxCell id="Eo9nAwtSOePqqUTVBN_c-135" value="&lt;font style=&quot;font-size: 12px&quot;&gt;10&lt;/font&gt;" style="text;html=1;align=center;verticalAlign=middle;resizable=0;points=[];autosize=1;strokeColor=none;fillColor=none;fontSize=20;" vertex="1" parent="1">
          <mxGeometry x="582.62" y="2678" width="40" height="40" as="geometry" />
        </mxCell>
        <mxCell id="Eo9nAwtSOePqqUTVBN_c-136" value="&lt;font style=&quot;font-size: 12px&quot;&gt;9&lt;/font&gt;" style="text;html=1;align=center;verticalAlign=middle;resizable=0;points=[];autosize=1;strokeColor=none;fillColor=none;fontSize=20;" vertex="1" parent="1">
          <mxGeometry x="587.62" y="2728" width="30" height="40" as="geometry" />
        </mxCell>
        <mxCell id="Eo9nAwtSOePqqUTVBN_c-137" value="&lt;font style=&quot;font-size: 12px&quot;&gt;8&lt;/font&gt;" style="text;html=1;align=center;verticalAlign=middle;resizable=0;points=[];autosize=1;strokeColor=none;fillColor=none;fontSize=20;" vertex="1" parent="1">
          <mxGeometry x="586.58" y="2780" width="30" height="40" as="geometry" />
        </mxCell>
        <mxCell id="Eo9nAwtSOePqqUTVBN_c-138" value="&lt;font style=&quot;font-size: 12px&quot;&gt;7&lt;/font&gt;" style="text;html=1;align=center;verticalAlign=middle;resizable=0;points=[];autosize=1;strokeColor=none;fillColor=none;fontSize=20;" vertex="1" parent="1">
          <mxGeometry x="586.58" y="2830" width="30" height="40" as="geometry" />
        </mxCell>
        <mxCell id="Eo9nAwtSOePqqUTVBN_c-139" value="&lt;font style=&quot;font-size: 12px&quot;&gt;1&lt;/font&gt;" style="rounded=0;whiteSpace=wrap;html=1;rotation=90;" vertex="1" parent="1">
          <mxGeometry x="150.69" y="2583" width="40" height="20" as="geometry" />
        </mxCell>
        <mxCell id="Eo9nAwtSOePqqUTVBN_c-140" value="&lt;font style=&quot;font-size: 12px&quot;&gt;2&lt;/font&gt;" style="rounded=0;whiteSpace=wrap;html=1;rotation=90;" vertex="1" parent="1">
          <mxGeometry x="150.69" y="2633" width="40" height="20" as="geometry" />
        </mxCell>
        <mxCell id="Eo9nAwtSOePqqUTVBN_c-141" value="&lt;font style=&quot;font-size: 12px&quot;&gt;3&lt;/font&gt;" style="rounded=0;whiteSpace=wrap;html=1;rotation=90;" vertex="1" parent="1">
          <mxGeometry x="150.69" y="2683" width="40" height="20" as="geometry" />
        </mxCell>
        <mxCell id="Eo9nAwtSOePqqUTVBN_c-142" value="&lt;font style=&quot;font-size: 12px&quot;&gt;4&lt;/font&gt;" style="rounded=0;whiteSpace=wrap;html=1;rotation=90;" vertex="1" parent="1">
          <mxGeometry x="150.69" y="2733" width="40" height="20" as="geometry" />
        </mxCell>
        <mxCell id="Eo9nAwtSOePqqUTVBN_c-143" value="&lt;font style=&quot;font-size: 12px&quot;&gt;5&lt;/font&gt;" style="rounded=0;whiteSpace=wrap;html=1;rotation=90;" vertex="1" parent="1">
          <mxGeometry x="149.65" y="2785" width="40" height="20" as="geometry" />
        </mxCell>
        <mxCell id="Eo9nAwtSOePqqUTVBN_c-144" value="&lt;font style=&quot;font-size: 12px&quot;&gt;6&lt;/font&gt;" style="rounded=0;whiteSpace=wrap;html=1;rotation=90;" vertex="1" parent="1">
          <mxGeometry x="149.65" y="2835" width="40" height="20" as="geometry" />
        </mxCell>
        <mxCell id="Eo9nAwtSOePqqUTVBN_c-146" value="&lt;font style=&quot;font-size: 20px&quot;&gt;Центральный переключатель света&lt;br&gt;&lt;/font&gt;" style="text;html=1;align=center;verticalAlign=middle;resizable=0;points=[];autosize=1;strokeColor=none;fillColor=none;" vertex="1" parent="1">
          <mxGeometry x="235" y="2910" width="350" height="40" as="geometry" />
        </mxCell>
        <mxCell id="Eo9nAwtSOePqqUTVBN_c-147" value="" style="rounded=0;whiteSpace=wrap;html=1;" vertex="1" parent="1">
          <mxGeometry x="380" y="3000" width="40" height="10" as="geometry" />
        </mxCell>
        <mxCell id="Eo9nAwtSOePqqUTVBN_c-148" value="&lt;font style=&quot;font-size: 12px&quot;&gt;1&lt;/font&gt;" style="text;html=1;align=center;verticalAlign=middle;resizable=0;points=[];autosize=1;strokeColor=none;fillColor=none;fontSize=20;" vertex="1" parent="1">
          <mxGeometry x="399.31" y="2970" width="30" height="40" as="geometry" />
        </mxCell>
        <mxCell id="Eo9nAwtSOePqqUTVBN_c-149" value="" style="rounded=0;whiteSpace=wrap;html=1;rotation=105;" vertex="1" parent="1">
          <mxGeometry x="335.0000000000001" y="3075" width="40" height="10" as="geometry" />
        </mxCell>
        <mxCell id="Eo9nAwtSOePqqUTVBN_c-150" value="&lt;font style=&quot;font-size: 12px&quot;&gt;3&lt;/font&gt;" style="text;html=1;align=center;verticalAlign=middle;resizable=0;points=[];autosize=1;strokeColor=none;fillColor=none;fontSize=20;" vertex="1" parent="1">
          <mxGeometry x="405.35" y="3020" width="30" height="40" as="geometry" />
        </mxCell>
        <mxCell id="Eo9nAwtSOePqqUTVBN_c-151" value="" style="rounded=0;whiteSpace=wrap;html=1;rotation=105;" vertex="1" parent="1">
          <mxGeometry x="420" y="3035" width="40" height="10" as="geometry" />
        </mxCell>
        <mxCell id="Eo9nAwtSOePqqUTVBN_c-152" value="&lt;font style=&quot;font-size: 12px&quot;&gt;4&lt;/font&gt;" style="text;html=1;align=center;verticalAlign=middle;resizable=0;points=[];autosize=1;strokeColor=none;fillColor=none;fontSize=20;" vertex="1" parent="1">
          <mxGeometry x="361.24" y="3060" width="30" height="40" as="geometry" />
        </mxCell>
        <mxCell id="Eo9nAwtSOePqqUTVBN_c-153" value="&lt;font style=&quot;font-size: 12px&quot;&gt;5&lt;/font&gt;" style="text;html=1;align=center;verticalAlign=middle;resizable=0;points=[];autosize=1;strokeColor=none;fillColor=none;fontSize=20;" vertex="1" parent="1">
          <mxGeometry x="450" y="3140" width="30" height="40" as="geometry" />
        </mxCell>
        <mxCell id="Eo9nAwtSOePqqUTVBN_c-154" value="" style="rounded=0;whiteSpace=wrap;html=1;rotation=105;" vertex="1" parent="1">
          <mxGeometry x="464.65" y="3155" width="40" height="10" as="geometry" />
        </mxCell>
        <mxCell id="Eo9nAwtSOePqqUTVBN_c-155" value="&lt;font style=&quot;font-size: 12px&quot;&gt;9&lt;/font&gt;" style="text;html=1;align=center;verticalAlign=middle;resizable=0;points=[];autosize=1;strokeColor=none;fillColor=none;fontSize=20;" vertex="1" parent="1">
          <mxGeometry x="450" y="3200" width="30" height="40" as="geometry" />
        </mxCell>
        <mxCell id="Eo9nAwtSOePqqUTVBN_c-156" value="" style="rounded=0;whiteSpace=wrap;html=1;rotation=105;" vertex="1" parent="1">
          <mxGeometry x="464.65" y="3215" width="40" height="10" as="geometry" />
        </mxCell>
        <mxCell id="Eo9nAwtSOePqqUTVBN_c-157" value="&lt;font style=&quot;font-size: 12px&quot;&gt;6, 7&lt;/font&gt;" style="text;html=1;align=center;verticalAlign=middle;resizable=0;points=[];autosize=1;strokeColor=none;fillColor=none;fontSize=20;" vertex="1" parent="1">
          <mxGeometry x="260" y="3140" width="40" height="40" as="geometry" />
        </mxCell>
        <mxCell id="Eo9nAwtSOePqqUTVBN_c-158" value="" style="rounded=0;whiteSpace=wrap;html=1;rotation=75;" vertex="1" parent="1">
          <mxGeometry x="294.65" y="3155" width="40" height="10" as="geometry" />
        </mxCell>
        <mxCell id="Eo9nAwtSOePqqUTVBN_c-159" value="&lt;font style=&quot;font-size: 12px&quot;&gt;8&lt;/font&gt;" style="text;html=1;align=center;verticalAlign=middle;resizable=0;points=[];autosize=1;strokeColor=none;fillColor=none;fontSize=20;" vertex="1" parent="1">
          <mxGeometry x="270.35" y="3200" width="30" height="40" as="geometry" />
        </mxCell>
        <mxCell id="Eo9nAwtSOePqqUTVBN_c-160" value="" style="rounded=0;whiteSpace=wrap;html=1;rotation=75;" vertex="1" parent="1">
          <mxGeometry x="300" y="3215" width="40" height="10" as="geometry" />
        </mxCell>
        <mxCell id="Eo9nAwtSOePqqUTVBN_c-161" value="" style="endArrow=none;dashed=1;html=1;dashPattern=1 3;strokeWidth=2;rounded=0;" edge="1" parent="1">
          <mxGeometry width="50" height="50" relative="1" as="geometry">
            <mxPoint x="400" y="3290" as="sourcePoint" />
            <mxPoint x="400" y="2960" as="targetPoint" />
          </mxGeometry>
        </mxCell>
        <mxCell id="Eo9nAwtSOePqqUTVBN_c-162" value="" style="rounded=0;whiteSpace=wrap;html=1;" vertex="1" parent="1">
          <mxGeometry x="619.3100000000001" y="3520" width="40" height="10" as="geometry" />
        </mxCell>
        <mxCell id="Eo9nAwtSOePqqUTVBN_c-163" value="&lt;font style=&quot;font-size: 12px&quot;&gt;H&lt;/font&gt;" style="text;html=1;align=center;verticalAlign=middle;resizable=0;points=[];autosize=1;strokeColor=none;fillColor=none;fontSize=20;" vertex="1" parent="1">
          <mxGeometry x="624.3100000000001" y="3490" width="30" height="40" as="geometry" />
        </mxCell>
        <mxCell id="Eo9nAwtSOePqqUTVBN_c-176" value="H" style="rounded=0;whiteSpace=wrap;html=1;" vertex="1" parent="1">
          <mxGeometry x="139" y="3510" width="40" height="20" as="geometry" />
        </mxCell>
        <mxCell id="Eo9nAwtSOePqqUTVBN_c-181" value="&lt;font style=&quot;font-size: 20px&quot;&gt;Кнопки/Переключатели&lt;br&gt;лампа не показана&lt;br&gt;&lt;/font&gt;" style="text;html=1;align=center;verticalAlign=middle;resizable=0;points=[];autosize=1;strokeColor=none;fillColor=none;" vertex="1" parent="1">
          <mxGeometry x="281.04" y="3402" width="240" height="60" as="geometry" />
        </mxCell>
        <mxCell id="Eo9nAwtSOePqqUTVBN_c-182" value="" style="rounded=0;whiteSpace=wrap;html=1;rotation=90;" vertex="1" parent="1">
          <mxGeometry x="522.6200000000001" y="3645" width="40" height="10" as="geometry" />
        </mxCell>
        <mxCell id="Eo9nAwtSOePqqUTVBN_c-183" value="&lt;font style=&quot;font-size: 12px&quot;&gt;T&lt;/font&gt;" style="text;html=1;align=center;verticalAlign=middle;resizable=0;points=[];autosize=1;strokeColor=none;fillColor=none;fontSize=20;" vertex="1" parent="1">
          <mxGeometry x="621.98" y="3630" width="30" height="40" as="geometry" />
        </mxCell>
        <mxCell id="Eo9nAwtSOePqqUTVBN_c-186" value="" style="rounded=0;whiteSpace=wrap;html=1;rotation=90;" vertex="1" parent="1">
          <mxGeometry x="636.63" y="3645" width="40" height="10" as="geometry" />
        </mxCell>
        <mxCell id="Eo9nAwtSOePqqUTVBN_c-194" value="&lt;font style=&quot;font-size: 12px&quot;&gt;S&lt;/font&gt;" style="text;html=1;align=center;verticalAlign=middle;resizable=0;points=[];autosize=1;strokeColor=none;fillColor=none;fontSize=20;" vertex="1" parent="1">
          <mxGeometry x="548.86" y="3630" width="30" height="40" as="geometry" />
        </mxCell>
        <mxCell id="Eo9nAwtSOePqqUTVBN_c-201" value="&lt;font style=&quot;font-size: 12px&quot;&gt;T&lt;/font&gt;" style="rounded=0;whiteSpace=wrap;html=1;rotation=90;" vertex="1" parent="1">
          <mxGeometry x="130" y="3640" width="40" height="20" as="geometry" />
        </mxCell>
        <mxCell id="Eo9nAwtSOePqqUTVBN_c-202" value="&lt;font style=&quot;font-size: 12px&quot;&gt;U&lt;/font&gt;" style="rounded=0;whiteSpace=wrap;html=1;" vertex="1" parent="1">
          <mxGeometry x="210" y="3510" width="40" height="20" as="geometry" />
        </mxCell>
        <mxCell id="Eo9nAwtSOePqqUTVBN_c-203" value="&lt;font style=&quot;font-size: 12px&quot;&gt;L&lt;/font&gt;" style="rounded=0;whiteSpace=wrap;html=1;" vertex="1" parent="1">
          <mxGeometry x="139" y="3540" width="40" height="20" as="geometry" />
        </mxCell>
        <mxCell id="Eo9nAwtSOePqqUTVBN_c-204" value="&lt;font style=&quot;font-size: 12px&quot;&gt;I&lt;/font&gt;" style="rounded=0;whiteSpace=wrap;html=1;" vertex="1" parent="1">
          <mxGeometry x="210" y="3540" width="40" height="20" as="geometry" />
        </mxCell>
        <mxCell id="Eo9nAwtSOePqqUTVBN_c-207" value="&lt;font style=&quot;font-size: 12px&quot;&gt;V&lt;/font&gt;" style="rounded=0;whiteSpace=wrap;html=1;" vertex="1" parent="1">
          <mxGeometry x="139" y="3570" width="40" height="20" as="geometry" />
        </mxCell>
        <mxCell id="Eo9nAwtSOePqqUTVBN_c-208" value="&lt;font style=&quot;font-size: 12px&quot;&gt;D&lt;/font&gt;" style="rounded=0;whiteSpace=wrap;html=1;" vertex="1" parent="1">
          <mxGeometry x="210" y="3570" width="40" height="20" as="geometry" />
        </mxCell>
        <mxCell id="Eo9nAwtSOePqqUTVBN_c-209" value="&lt;font style=&quot;font-size: 12px&quot;&gt;S&lt;/font&gt;" style="rounded=0;whiteSpace=wrap;html=1;rotation=90;" vertex="1" parent="1">
          <mxGeometry x="219" y="3640" width="40" height="20" as="geometry" />
        </mxCell>
        <mxCell id="Eo9nAwtSOePqqUTVBN_c-214" value="" style="rounded=0;whiteSpace=wrap;html=1;" vertex="1" parent="1">
          <mxGeometry x="538.3100000000001" y="3520" width="40" height="10" as="geometry" />
        </mxCell>
        <mxCell id="Eo9nAwtSOePqqUTVBN_c-215" value="&lt;font style=&quot;font-size: 12px&quot;&gt;U&lt;/font&gt;" style="text;html=1;align=center;verticalAlign=middle;resizable=0;points=[];autosize=1;strokeColor=none;fillColor=none;fontSize=20;" vertex="1" parent="1">
          <mxGeometry x="543.3100000000001" y="3490" width="30" height="40" as="geometry" />
        </mxCell>
        <mxCell id="Eo9nAwtSOePqqUTVBN_c-216" value="" style="rounded=0;whiteSpace=wrap;html=1;" vertex="1" parent="1">
          <mxGeometry x="619.0000000000001" y="3550" width="40" height="10" as="geometry" />
        </mxCell>
        <mxCell id="Eo9nAwtSOePqqUTVBN_c-217" value="&lt;font style=&quot;font-size: 12px&quot;&gt;L&lt;/font&gt;" style="text;html=1;align=center;verticalAlign=middle;resizable=0;points=[];autosize=1;strokeColor=none;fillColor=none;fontSize=20;" vertex="1" parent="1">
          <mxGeometry x="624.0000000000001" y="3520" width="30" height="40" as="geometry" />
        </mxCell>
        <mxCell id="Eo9nAwtSOePqqUTVBN_c-218" value="" style="rounded=0;whiteSpace=wrap;html=1;" vertex="1" parent="1">
          <mxGeometry x="538.0000000000001" y="3550" width="40" height="10" as="geometry" />
        </mxCell>
        <mxCell id="Eo9nAwtSOePqqUTVBN_c-219" value="&lt;font style=&quot;font-size: 12px&quot;&gt;I&lt;/font&gt;" style="text;html=1;align=center;verticalAlign=middle;resizable=0;points=[];autosize=1;strokeColor=none;fillColor=none;fontSize=20;" vertex="1" parent="1">
          <mxGeometry x="543.0000000000001" y="3520" width="30" height="40" as="geometry" />
        </mxCell>
        <mxCell id="Eo9nAwtSOePqqUTVBN_c-220" value="" style="rounded=0;whiteSpace=wrap;html=1;" vertex="1" parent="1">
          <mxGeometry x="619.0000000000001" y="3580" width="40" height="10" as="geometry" />
        </mxCell>
        <mxCell id="Eo9nAwtSOePqqUTVBN_c-221" value="&lt;font style=&quot;font-size: 12px&quot;&gt;V&lt;/font&gt;" style="text;html=1;align=center;verticalAlign=middle;resizable=0;points=[];autosize=1;strokeColor=none;fillColor=none;fontSize=20;" vertex="1" parent="1">
          <mxGeometry x="624.0000000000001" y="3550" width="30" height="40" as="geometry" />
        </mxCell>
        <mxCell id="Eo9nAwtSOePqqUTVBN_c-222" value="" style="rounded=0;whiteSpace=wrap;html=1;" vertex="1" parent="1">
          <mxGeometry x="538.0000000000001" y="3580" width="40" height="10" as="geometry" />
        </mxCell>
        <mxCell id="Eo9nAwtSOePqqUTVBN_c-223" value="&lt;font style=&quot;font-size: 12px&quot;&gt;D&lt;/font&gt;" style="text;html=1;align=center;verticalAlign=middle;resizable=0;points=[];autosize=1;strokeColor=none;fillColor=none;fontSize=20;" vertex="1" parent="1">
          <mxGeometry x="543.0000000000001" y="3550" width="30" height="40" as="geometry" />
        </mxCell>
        <mxCell id="Eo9nAwtSOePqqUTVBN_c-224" value="" style="rounded=0;whiteSpace=wrap;html=1;" vertex="1" parent="1">
          <mxGeometry x="529" y="3965.5" width="40" height="10" as="geometry" />
        </mxCell>
        <mxCell id="Eo9nAwtSOePqqUTVBN_c-226" value="" style="rounded=0;whiteSpace=wrap;html=1;" vertex="1" parent="1">
          <mxGeometry x="689" y="3965.5" width="40" height="10" as="geometry" />
        </mxCell>
        <mxCell id="Eo9nAwtSOePqqUTVBN_c-227" value="" style="rounded=0;whiteSpace=wrap;html=1;" vertex="1" parent="1">
          <mxGeometry x="529" y="3925.5" width="40" height="10" as="geometry" />
        </mxCell>
        <mxCell id="Eo9nAwtSOePqqUTVBN_c-228" value="" style="rounded=0;whiteSpace=wrap;html=1;" vertex="1" parent="1">
          <mxGeometry x="609" y="3925.5" width="40" height="10" as="geometry" />
        </mxCell>
        <mxCell id="Eo9nAwtSOePqqUTVBN_c-229" value="" style="rounded=0;whiteSpace=wrap;html=1;" vertex="1" parent="1">
          <mxGeometry x="689" y="3925.5" width="40" height="10" as="geometry" />
        </mxCell>
        <mxCell id="Eo9nAwtSOePqqUTVBN_c-230" value="5" style="text;html=1;align=center;verticalAlign=middle;resizable=0;points=[];autosize=1;strokeColor=none;fillColor=none;fontSize=12;" vertex="1" parent="1">
          <mxGeometry x="694" y="3900.5" width="30" height="30" as="geometry" />
        </mxCell>
        <mxCell id="Eo9nAwtSOePqqUTVBN_c-231" value="3" style="text;html=1;align=center;verticalAlign=middle;resizable=0;points=[];autosize=1;strokeColor=none;fillColor=none;fontSize=12;" vertex="1" parent="1">
          <mxGeometry x="614" y="3900.5" width="30" height="30" as="geometry" />
        </mxCell>
        <mxCell id="Eo9nAwtSOePqqUTVBN_c-232" value="1" style="text;html=1;align=center;verticalAlign=middle;resizable=0;points=[];autosize=1;strokeColor=none;fillColor=none;fontSize=12;" vertex="1" parent="1">
          <mxGeometry x="534" y="3900.5" width="30" height="30" as="geometry" />
        </mxCell>
        <mxCell id="Eo9nAwtSOePqqUTVBN_c-233" value="6" style="text;html=1;align=center;verticalAlign=middle;resizable=0;points=[];autosize=1;strokeColor=none;fillColor=none;fontSize=12;" vertex="1" parent="1">
          <mxGeometry x="694" y="3940.5" width="30" height="30" as="geometry" />
        </mxCell>
        <mxCell id="Eo9nAwtSOePqqUTVBN_c-235" value="2" style="text;html=1;align=center;verticalAlign=middle;resizable=0;points=[];autosize=1;strokeColor=none;fillColor=none;fontSize=12;" vertex="1" parent="1">
          <mxGeometry x="534" y="3940.5" width="30" height="30" as="geometry" />
        </mxCell>
        <mxCell id="Eo9nAwtSOePqqUTVBN_c-236" value="" style="endArrow=none;html=1;rounded=0;" edge="1" parent="1">
          <mxGeometry width="50" height="50" relative="1" as="geometry">
            <mxPoint x="486.81" y="4030" as="sourcePoint" />
            <mxPoint x="486.81" y="3910" as="targetPoint" />
          </mxGeometry>
        </mxCell>
        <mxCell id="Eo9nAwtSOePqqUTVBN_c-237" value="" style="endArrow=none;html=1;rounded=0;" edge="1" parent="1">
          <mxGeometry width="50" height="50" relative="1" as="geometry">
            <mxPoint x="526.81" y="4030" as="sourcePoint" />
            <mxPoint x="486.81" y="4030" as="targetPoint" />
          </mxGeometry>
        </mxCell>
        <mxCell id="Eo9nAwtSOePqqUTVBN_c-238" value="" style="endArrow=none;html=1;rounded=0;" edge="1" parent="1">
          <mxGeometry width="50" height="50" relative="1" as="geometry">
            <mxPoint x="526.81" y="4030" as="sourcePoint" />
            <mxPoint x="526.81" y="3990" as="targetPoint" />
          </mxGeometry>
        </mxCell>
        <mxCell id="Eo9nAwtSOePqqUTVBN_c-239" value="" style="endArrow=none;html=1;rounded=0;" edge="1" parent="1">
          <mxGeometry width="50" height="50" relative="1" as="geometry">
            <mxPoint x="526.81" y="3990" as="sourcePoint" />
            <mxPoint x="729" y="3990.5" as="targetPoint" />
          </mxGeometry>
        </mxCell>
        <mxCell id="Eo9nAwtSOePqqUTVBN_c-240" value="" style="endArrow=none;html=1;rounded=0;" edge="1" parent="1">
          <mxGeometry width="50" height="50" relative="1" as="geometry">
            <mxPoint x="768.31" y="4030" as="sourcePoint" />
            <mxPoint x="728.31" y="4030" as="targetPoint" />
          </mxGeometry>
        </mxCell>
        <mxCell id="Eo9nAwtSOePqqUTVBN_c-241" value="" style="endArrow=none;html=1;rounded=0;" edge="1" parent="1">
          <mxGeometry width="50" height="50" relative="1" as="geometry">
            <mxPoint x="729" y="4030" as="sourcePoint" />
            <mxPoint x="729" y="3990" as="targetPoint" />
          </mxGeometry>
        </mxCell>
        <mxCell id="Eo9nAwtSOePqqUTVBN_c-242" value="" style="endArrow=none;html=1;rounded=0;" edge="1" parent="1">
          <mxGeometry width="50" height="50" relative="1" as="geometry">
            <mxPoint x="769" y="3910" as="sourcePoint" />
            <mxPoint x="769" y="4030" as="targetPoint" />
          </mxGeometry>
        </mxCell>
        <mxCell id="Eo9nAwtSOePqqUTVBN_c-243" value="" style="endArrow=none;html=1;rounded=0;" edge="1" parent="1">
          <mxGeometry width="50" height="50" relative="1" as="geometry">
            <mxPoint x="526.81" y="3880" as="sourcePoint" />
            <mxPoint x="729" y="3880.5" as="targetPoint" />
          </mxGeometry>
        </mxCell>
        <mxCell id="Eo9nAwtSOePqqUTVBN_c-244" value="" style="endArrow=none;html=1;rounded=0;" edge="1" parent="1">
          <mxGeometry width="50" height="50" relative="1" as="geometry">
            <mxPoint x="729" y="3880" as="sourcePoint" />
            <mxPoint x="769" y="3910" as="targetPoint" />
          </mxGeometry>
        </mxCell>
        <mxCell id="Eo9nAwtSOePqqUTVBN_c-245" value="" style="endArrow=none;html=1;rounded=0;" edge="1" parent="1">
          <mxGeometry width="50" height="50" relative="1" as="geometry">
            <mxPoint x="486.81" y="3910" as="sourcePoint" />
            <mxPoint x="526.81" y="3880" as="targetPoint" />
          </mxGeometry>
        </mxCell>
        <mxCell id="Eo9nAwtSOePqqUTVBN_c-246" value="&lt;font style=&quot;font-size: 20px&quot;&gt;Переключатели ЭСП ПКЛ-12-1&lt;br&gt;Вид на клеммы П&lt;br&gt;&lt;/font&gt;" style="text;html=1;align=center;verticalAlign=middle;resizable=0;points=[];autosize=1;strokeColor=none;fillColor=none;" vertex="1" parent="1">
          <mxGeometry x="235.00000000000006" y="3780" width="310" height="60" as="geometry" />
        </mxCell>
        <mxCell id="Eo9nAwtSOePqqUTVBN_c-248" value="&lt;span style=&quot;font-size: 15px;&quot;&gt;1 - Подсветка?&lt;br&gt;2 - Выход на мотор ЭСП (&#39;+&#39; ?)&lt;br&gt;3 - +12 В&lt;br&gt;4 - ПУСТО&lt;br&gt;5 - Выход на мотор ЭСП (&#39;-&#39; ?)&lt;br&gt;6 - Масса&lt;br&gt;&lt;/span&gt;" style="text;html=1;align=left;verticalAlign=middle;resizable=0;points=[];autosize=1;strokeColor=none;fillColor=none;" vertex="1" parent="1">
          <mxGeometry x="110" y="3880" width="230" height="120" as="geometry" />
        </mxCell>
        <mxCell id="Eo9nAwtSOePqqUTVBN_c-249" value="Лев 13&lt;br&gt;Лев 14&lt;br&gt;Лев 15&lt;br&gt;&lt;br&gt;&amp;nbsp; &amp;nbsp; &amp;nbsp; &amp;nbsp; &amp;nbsp; &amp;nbsp; &amp;nbsp; &amp;nbsp; &amp;nbsp; &amp;nbsp; &amp;nbsp; &amp;nbsp; &amp;nbsp; &amp;nbsp; &amp;nbsp; &amp;nbsp; &amp;nbsp;Прав 13" style="rounded=0;whiteSpace=wrap;html=1;align=left;" vertex="1" parent="1">
          <mxGeometry x="318.5" y="4200" width="160" height="80" as="geometry" />
        </mxCell>
        <mxCell id="Eo9nAwtSOePqqUTVBN_c-250" value="Лев 1&amp;nbsp; Лев 5&lt;br&gt;Лев 2&amp;nbsp; Лев 6&lt;br&gt;&lt;br&gt;Лев 3&amp;nbsp; ...&lt;br&gt;Лев 4&amp;nbsp; &amp;nbsp; &amp;nbsp; &amp;nbsp; &amp;nbsp; &amp;nbsp; &amp;nbsp; &amp;nbsp; &amp;nbsp; &amp;nbsp; &amp;nbsp; &amp;nbsp; &amp;nbsp;Лев 12" style="rounded=0;whiteSpace=wrap;html=1;align=left;" vertex="1" parent="1">
          <mxGeometry x="318.5" y="4280" width="160" height="80" as="geometry" />
        </mxCell>
        <mxCell id="Eo9nAwtSOePqqUTVBN_c-251" value="&amp;nbsp;Реле MIDI 1&amp;nbsp; &amp;nbsp; Реле MIDI 2" style="rounded=0;whiteSpace=wrap;html=1;align=left;" vertex="1" parent="1">
          <mxGeometry x="478.53999999999996" y="4200" width="160" height="80" as="geometry" />
        </mxCell>
        <mxCell id="Eo9nAwtSOePqqUTVBN_c-252" value="Прав 1&amp;nbsp; Прав 5&lt;br style=&quot;border-color: var(--border-color);&quot;&gt;&lt;span style=&quot;&quot;&gt;Прав 2&amp;nbsp; Прав 6&lt;/span&gt;&lt;br style=&quot;border-color: var(--border-color);&quot;&gt;&lt;br style=&quot;border-color: var(--border-color);&quot;&gt;&lt;span style=&quot;&quot;&gt;Прав 3&amp;nbsp; ...&lt;/span&gt;&lt;br style=&quot;border-color: var(--border-color);&quot;&gt;&lt;div style=&quot;&quot;&gt;&lt;span style=&quot;background-color: initial;&quot;&gt;Прав 4&amp;nbsp; &amp;nbsp; &amp;nbsp; &amp;nbsp; &amp;nbsp; &amp;nbsp; &amp;nbsp; &amp;nbsp; &amp;nbsp; &amp;nbsp; &amp;nbsp; Прав 12&lt;/span&gt;&lt;/div&gt;" style="rounded=0;whiteSpace=wrap;html=1;align=left;" vertex="1" parent="1">
          <mxGeometry x="478.53999999999996" y="4280" width="160" height="80" as="geometry" />
        </mxCell>
        <mxCell id="Eo9nAwtSOePqqUTVBN_c-253" value="&amp;nbsp;Реле MIDI 3&amp;nbsp; &amp;nbsp; Реле MIDI 4" style="rounded=0;whiteSpace=wrap;html=1;align=left;" vertex="1" parent="1">
          <mxGeometry x="637.5" y="4200" width="160" height="80" as="geometry" />
        </mxCell>
        <mxCell id="Eo9nAwtSOePqqUTVBN_c-254" value="&amp;nbsp;Реле MINI 1&amp;nbsp; &amp;nbsp; Реле MINI 2&lt;br&gt;&lt;br&gt;&amp;nbsp;Реле MINI 3&amp;nbsp; &amp;nbsp; Реле MINI 4" style="rounded=0;whiteSpace=wrap;html=1;align=left;" vertex="1" parent="1">
          <mxGeometry x="637.5" y="4280" width="160" height="80" as="geometry" />
        </mxCell>
        <mxCell id="Eo9nAwtSOePqqUTVBN_c-256" value="&lt;font style=&quot;font-size: 20px&quot;&gt;Блок предохранителей и реле&lt;br&gt;&lt;/font&gt;" style="text;html=1;align=center;verticalAlign=middle;resizable=0;points=[];autosize=1;strokeColor=none;fillColor=none;" vertex="1" parent="1">
          <mxGeometry x="268.00000000000006" y="4110" width="300" height="40" as="geometry" />
        </mxCell>
        <mxCell id="Eo9nAwtSOePqqUTVBN_c-257" value="&lt;span style=&quot;font-size: 15px;&quot;&gt;Реле MIDI:&lt;br&gt;&amp;nbsp; 1 - Ближний&lt;br&gt;&amp;nbsp; 2 - Дальний&lt;br&gt;&amp;nbsp; 3 - Обогрев заднего стекла&lt;br&gt;&amp;nbsp; 4 - Передние ПТФ&lt;br&gt;&lt;br&gt;Реле MIN:&lt;br&gt;&amp;nbsp; 1 - Клаксоны&lt;br&gt;&amp;nbsp; 2 - Вентилятор отопителя&lt;br&gt;&amp;nbsp; 3 - ПТФ задние&lt;br&gt;&amp;nbsp; 4 - Контрольные лампы&lt;br&gt;&lt;/span&gt;" style="text;html=1;align=left;verticalAlign=middle;resizable=0;points=[];autosize=1;strokeColor=none;fillColor=none;" vertex="1" parent="1">
          <mxGeometry x="38.99999999999999" y="4180" width="220" height="210" as="geometry" />
        </mxCell>
      </root>
    </mxGraphModel>
  </diagram>
</mxfile>
